<svg id="icon-app-store" viewBox="0 0 148 40" xmlns="http://www.w3.org/2000/svg">
  <g clip-path="url(#a)">
      <path d="M136.214 0H11.793c-.454 0-.902 0-1.354.002-.38.002-.755.008-1.137.013-.83.008-1.66.067-2.478.177a9.663 9.663 0 0 0-2.351.627A8.12 8.12 0 0 0 2.47 1.997a6.514 6.514 0 0 0-1.458 1.621A5.767 5.767 0 0 0 .24 5.522 10.58 10.58 0 0 0 .02 7.524c-.012.306-.013.614-.019.92V31.56c.006.31.007.611.019.922.01.67.084 1.34.221 2.002.136.663.397 1.305.773 1.904A6.468 6.468 0 0 0 2.471 38c.585.477 1.26.875 2.002 1.179.74.304 1.532.517 2.35.63.82.11 1.649.169 2.479.177.382.007.758.011 1.136.011.453.002.9.002 1.354.002h124.422c.445 0 .896 0 1.341-.002.377 0 .763-.004 1.14-.01a20.197 20.197 0 0 0 2.474-.177 9.862 9.862 0 0 0 2.36-.631 7.93 7.93 0 0 0 2-1.179 6.655 6.655 0 0 0 1.461-1.614 5.75 5.75 0 0 0 .766-1.904c.138-.662.215-1.331.23-2.002.004-.311.004-.612.004-.922.01-.364.01-.725.01-1.094V9.536c0-.366 0-.73-.01-1.092 0-.306 0-.614-.004-.92a11.006 11.006 0 0 0-.23-2.002 5.769 5.769 0 0 0-.766-1.904c-.763-1.203-1.974-2.182-3.461-2.8a9.817 9.817 0 0 0-2.36-.627c-.818-.11-1.645-.169-2.474-.176-.377-.005-.763-.011-1.14-.013C137.11 0 136.659 0 136.214 0Z" fill="#A6A6A6"/>
      <path d="M10.445 39.125c-.377 0-.745-.004-1.119-.01a19.336 19.336 0 0 1-2.312-.164 8.528 8.528 0 0 1-2.049-.548 6.819 6.819 0 0 1-1.727-1.016 5.547 5.547 0 0 1-1.263-1.397 4.998 4.998 0 0 1-.671-1.657 10.107 10.107 0 0 1-.206-1.875c-.008-.21-.018-.913-.018-.913v-23.1s.01-.692.018-.895c.01-.628.078-1.253.205-1.872a5.026 5.026 0 0 1 .672-1.662c.322-.518.746-.99 1.255-1.398a7.017 7.017 0 0 1 1.735-1.023 8.444 8.444 0 0 1 2.045-.544A19.167 19.167 0 0 1 9.33.887l1.115-.012H137.55l1.129.013c.77.007 1.539.061 2.299.162a8.614 8.614 0 0 1 2.066.548c1.284.535 2.328 1.381 2.987 2.42.322.52.545 1.076.662 1.649.128.624.2 1.255.215 1.887.004.283.004.588.004.89.009.375.009.732.009 1.092v20.929c0 .363 0 .718-.009 1.075 0 .325 0 .623-.005.93-.015.62-.085 1.24-.212 1.853a4.98 4.98 0 0 1-.668 1.67c-.325.513-.749.98-1.256 1.386a6.814 6.814 0 0 1-1.73 1.022 8.504 8.504 0 0 1-2.063.55c-.765.101-1.538.156-2.312.163-.362.007-.742.011-1.11.011l-1.341.002-125.77-.002Z"/>
      <path d="M27.65 20.763a5.38 5.38 0 0 1 .722-2.622 5.499 5.499 0 0 1 1.922-1.954 5.652 5.652 0 0 0-1.954-1.71 5.764 5.764 0 0 0-2.525-.668c-1.885-.194-3.711 1.107-4.672 1.107-.978 0-2.457-1.088-4.049-1.056a6.044 6.044 0 0 0-2.913.854 5.905 5.905 0 0 0-2.106 2.153c-2.17 3.69-.552 9.114 1.527 12.097 1.04 1.46 2.256 3.092 3.847 3.034 1.556-.063 2.137-.975 4.016-.975 1.862 0 2.407.975 4.03.939 1.67-.027 2.722-1.468 3.726-2.942a11.995 11.995 0 0 0 1.704-3.409 5.345 5.345 0 0 1-2.381-1.94 5.204 5.204 0 0 1-.895-2.908ZM24.668 11.847c.991-1.074 1.48-2.454 1.36-3.847-1.513.144-2.91.797-3.915 1.83a5.015 5.015 0 0 0-1.106 1.726 4.65 4.65 0 0 0-.29 1.978 5.46 5.46 0 0 0 2.19-.434 4.959 4.959 0 0 0 1.761-1.253ZM51.355 26.929h-5.293l-1.271 3.389h-2.242l5.014-12.539h2.329l5.014 12.538h-2.28l-1.27-3.388Zm-4.745-1.564h4.196l-2.068-5.5h-.058l-2.07 5.5ZM65.734 25.748c0 2.84-1.684 4.665-4.225 4.665a3.735 3.735 0 0 1-1.848-.386 3.283 3.283 0 0 1-1.338-1.213h-.048v4.528h-2.078V21.176h2.011v1.52h.039a3.446 3.446 0 0 1 1.364-1.21 3.905 3.905 0 0 1 1.86-.405c2.57 0 4.263 1.834 4.263 4.667Zm-2.136 0c0-1.851-1.06-3.068-2.676-3.068-1.588 0-2.656 1.242-2.656 3.068 0 1.841 1.068 3.075 2.656 3.075 1.617 0 2.676-1.208 2.676-3.075ZM76.878 25.748c0 2.84-1.684 4.665-4.226 4.665a3.735 3.735 0 0 1-1.847-.386 3.283 3.283 0 0 1-1.338-1.213h-.048v4.528H67.34V21.176h2.012v1.52h.038a3.446 3.446 0 0 1 1.365-1.21 3.905 3.905 0 0 1 1.859-.405c2.57 0 4.264 1.834 4.264 4.667Zm-2.136 0c0-1.851-1.06-3.068-2.676-3.068-1.588 0-2.656 1.242-2.656 3.068 0 1.841 1.068 3.075 2.656 3.075 1.616 0 2.675-1.208 2.675-3.075ZM84.243 26.824c.154 1.243 1.492 2.06 3.32 2.06 1.751 0 3.012-.817 3.012-1.938 0-.973-.76-1.556-2.56-1.955l-1.8-.391c-2.55-.556-3.734-1.633-3.734-3.38 0-2.164 2.088-3.65 5.053-3.65 2.935 0 4.946 1.486 5.014 3.65H90.45c-.126-1.252-1.271-2.007-2.945-2.007s-2.82.764-2.82 1.876c0 .887.732 1.408 2.522 1.808l1.53.339c2.849.608 4.033 1.642 4.033 3.476 0 2.345-2.07 3.814-5.361 3.814-3.08 0-5.16-1.434-5.294-3.702h2.128ZM97.255 19.013v2.163h1.925v1.486h-1.925v5.04c0 .782.386 1.147 1.232 1.147.228-.003.457-.018.684-.043v1.477c-.381.064-.768.093-1.155.087-2.05 0-2.85-.696-2.85-2.468v-5.24h-1.471v-1.486h1.472v-2.163h2.088ZM100.295 25.747c0-2.876 1.877-4.683 4.802-4.683 2.936 0 4.803 1.807 4.803 4.683 0 2.885-1.857 4.684-4.803 4.684-2.944 0-4.802-1.8-4.802-4.684Zm7.488 0c0-1.973-1.002-3.137-2.686-3.137s-2.684 1.173-2.684 3.137c0 1.981 1 3.137 2.684 3.137 1.684 0 2.686-1.156 2.686-3.137ZM111.614 21.176h1.982v1.556h.048c.134-.486.449-.915.893-1.216.443-.3.988-.454 1.542-.435.24-.001.479.022.712.07v1.755a3.193 3.193 0 0 0-.933-.114 2.301 2.301 0 0 0-.883.141c-.279.104-.53.261-.736.461-.206.2-.361.438-.456.697-.094.259-.125.534-.091.805v5.422h-2.078v-9.142ZM126.373 27.633c-.279 1.66-2.069 2.798-4.359 2.798-2.946 0-4.774-1.782-4.774-4.64 0-2.867 1.838-4.727 4.686-4.727 2.802 0 4.563 1.737 4.563 4.509v.643h-7.151v.113c-.033.337.014.676.137.994.123.32.32.611.578.856.257.245.57.437.916.565a2.89 2.89 0 0 0 1.093.175 2.49 2.49 0 0 0 1.405-.293 2.14 2.14 0 0 0 .933-.993h1.973Zm-7.025-2.729h5.062a2.014 2.014 0 0 0-.149-.889 2.183 2.183 0 0 0-.531-.76 2.468 2.468 0 0 0-.825-.506 2.664 2.664 0 0 0-.979-.165 2.808 2.808 0 0 0-.987.173 2.592 2.592 0 0 0-.837.502c-.24.216-.43.473-.559.755-.13.282-.196.585-.195.89ZM45.156 10.336h.91c.158.018.317.006.468-.035.152-.04.292-.109.413-.201.12-.092.219-.206.288-.334a.954.954 0 0 0 .116-.41c0-.568-.472-.934-1.274-.934a1.34 1.34 0 0 0-.481.026 1.271 1.271 0 0 0-.432.194c-.128.09-.235.202-.314.33-.08.127-.13.268-.148.413h-1c.017-.264.094-.522.227-.758.132-.236.317-.445.543-.614a2.22 2.22 0 0 1 .77-.367c.281-.073.576-.094.867-.06 1.341 0 2.286.678 2.286 1.654.003.327-.118.645-.343.901-.226.256-.541.435-.895.506v.073c.42.016.814.182 1.098.461.284.279.434.648.417 1.026a1.916 1.916 0 0 1-.267.776c-.145.24-.342.45-.579.621-.237.17-.51.296-.8.37a2.51 2.51 0 0 1-.898.062c-.301.037-.608.019-.9-.053a2.366 2.366 0 0 1-.807-.367 2.116 2.116 0 0 1-.584-.622 1.904 1.904 0 0 1-.268-.778h1.016c.061.588.66.968 1.543.968.883 0 1.46-.427 1.46-1.028 0-.61-.543-.985-1.492-.985h-.94v-.835ZM49.827 12.574c0-.836.69-1.317 1.912-1.386l1.392-.072v-.4c0-.491-.358-.768-1.052-.768-.567 0-.958.188-1.072.516h-.982c.104-.797.935-1.309 2.102-1.309 1.289 0 2.015.58 2.015 1.56v3.172h-.977v-.653h-.08a1.675 1.675 0 0 1-.664.553 1.886 1.886 0 0 1-.88.176c-.217.02-.435 0-.641-.06a1.6 1.6 0 0 1-.558-.291 1.42 1.42 0 0 1-.38-.47 1.287 1.287 0 0 1-.136-.568Zm3.304-.397v-.388l-1.255.073c-.708.043-1.03.26-1.03.67 0 .417.402.66.954.66.162.015.325 0 .48-.043.156-.044.3-.115.424-.21a1.12 1.12 0 0 0 .3-.341c.073-.131.116-.274.127-.42ZM56.835 10.016v3.87h-1.014v-4.64h3.385v.77h-2.37ZM65.355 11.564c0 1.475-.827 2.4-2.124 2.4a1.826 1.826 0 0 1-.918-.182 1.606 1.606 0 0 1-.665-.598h-.08v2.246h-1.014V9.245h.976v.767h.076c.157-.261.39-.478.675-.627.285-.15.61-.224.94-.217 1.307 0 2.134.92 2.134 2.396Zm-1.044 0c0-.98-.514-1.573-1.374-1.573-.854 0-1.388.605-1.388 1.577 0 .967.534 1.573 1.384 1.573.864 0 1.378-.593 1.378-1.577ZM66.706 15.55v-.79c.11.013.22.019.331.018a.947.947 0 0 0 .602-.163.786.786 0 0 0 .328-.485l.076-.226-1.861-4.659h1.105l1.289 3.687h.08l1.284-3.687h1.076L69.1 14.08c-.44 1.13-.926 1.492-1.974 1.492-.084 0-.325-.009-.42-.022ZM71.807 12.57h1.01c.1.409.524.622 1.118.622.676 0 1.09-.269 1.09-.686 0-.448-.372-.661-1.09-.661h-.769v-.712h.756c.613 0 .925-.213.925-.601 0-.34-.302-.601-.925-.601-.567 0-.982.218-1.048.584h-.978c.073-.421.326-.8.705-1.054a1.95 1.95 0 0 1 1.321-.306c1.222 0 1.921.5 1.921 1.283a.894.894 0 0 1-.22.605 1.073 1.073 0 0 1-.592.346v.072c.28.033.538.157.723.35.186.192.286.44.283.695 0 .882-.832 1.466-2.102 1.466-1.122 0-2.034-.465-2.128-1.402ZM77.498 13.887V9.245h1.006v3.193h.08l2.37-3.193h1.005v4.642h-1.005v-3.21h-.076l-2.374 3.21h-1.006ZM87.5 10.016h-1.62v3.87h-1.015v-3.87h-1.62v-.77H87.5v.77ZM92.965 12.633a1.913 1.913 0 0 1-.844 1.037 2.266 2.266 0 0 1-1.385.306 2.556 2.556 0 0 1-.986-.171 2.344 2.344 0 0 1-.815-.53 2.065 2.065 0 0 1-.494-.79 1.912 1.912 0 0 1-.08-.905 1.941 1.941 0 0 1 .082-.906c.099-.294.266-.564.49-.794.226-.23.502-.414.813-.539a2.59 2.59 0 0 1 .986-.186c1.43 0 2.294.883 2.294 2.34v.32h-3.63v.051c-.016.17.008.342.07.504.061.162.16.31.289.435.129.125.285.225.46.292.173.068.361.101.55.1.243.025.489-.014.706-.114.218-.1.397-.257.516-.45h.978Zm-3.569-1.495h2.596a1.02 1.02 0 0 0-.069-.46 1.107 1.107 0 0 0-.269-.394 1.25 1.25 0 0 0-.422-.263c-.16-.06-.332-.09-.505-.086a1.438 1.438 0 0 0-.512.087c-.163.06-.31.148-.434.26a1.184 1.184 0 0 0-.288.393 1.084 1.084 0 0 0-.097.462ZM97.267 9.245h2.318c1.005 0 1.595.46 1.595 1.18a.936.936 0 0 1-.242.63 1.126 1.126 0 0 1-.626.35v.073c.3.018.581.138.786.337.205.2.317.462.313.734 0 .81-.674 1.338-1.803 1.338h-2.341V9.245Zm1.005.703v1.202h1.006c.613 0 .907-.213.907-.605 0-.362-.256-.597-.794-.597h-1.119Zm0 1.876v1.36h1.204c.599 0 .921-.24.921-.678 0-.465-.364-.682-1.049-.682h-1.076Z" fill="#fff"/>
  </g>
  <defs>
      <clipPath id="a">
          <path fill="#fff" d="M0 0h148v40H0z"/>
      </clipPath>
  </defs>
</svg>
