<svg>
	<symbol id="icon-phone" viewBox="0 0 14 20" xmlns="http://www.w3.org/2000/svg">
    <path fill-rule="evenodd" clip-rule="evenodd" d="M6.18001 1.89997H7.82C8.9138 1.89997 9.6259 1.90138 10.1693 1.94577C10.6916 1.98845 10.8976 2.06172 11.008 2.11796C11.3843 2.30971 11.6903 2.61567 11.882 2.99199C11.9383 3.10238 12.0115 3.30838 12.0542 3.83072C12.0986 4.37408 12.1 5.08617 12.1 6.17998V13.82C12.1 14.9138 12.0986 15.6259 12.0542 16.1693C12.0115 16.6916 11.9383 16.8976 11.882 17.008C11.6903 17.3843 11.3843 17.6903 11.008 17.882C10.8976 17.9383 10.6916 18.0115 10.1693 18.0542C9.6259 18.0986 8.9138 18.1 7.82 18.1H6.18001C5.08621 18.1 4.37411 18.0986 3.83075 18.0542C3.30841 18.0115 3.10242 17.9383 2.99203 17.882C2.6157 17.6903 2.30974 17.3843 2.11799 17.008C2.06175 16.8976 1.98848 16.6916 1.9458 16.1693C1.90141 15.6259 1.90001 14.9138 1.90001 13.82V6.17997C1.90001 5.08617 1.90141 4.37408 1.9458 3.83072C1.98848 3.30838 2.06175 3.10239 2.11799 2.99199C2.30974 2.61567 2.6157 2.30971 2.99203 2.11796C3.10242 2.06172 3.30841 1.98845 3.83075 1.94577C4.37411 1.90138 5.08621 1.89997 6.18001 1.89997ZM0.100006 6.17997C0.100006 4.05177 0.100006 2.98768 0.514181 2.17481C0.8785 1.4598 1.45983 0.878469 2.17484 0.514151C2.98771 0.0999754 4.05181 0.0999756 6.18001 0.0999756H7.82C9.9482 0.0999756 11.0123 0.0999754 11.8252 0.514151C12.5402 0.878469 13.1215 1.4598 13.4858 2.17481C13.9 2.98768 13.9 4.05178 13.9 6.17998V13.82C13.9 15.9482 13.9 17.0123 13.4858 17.8252C13.1215 18.5402 12.5402 19.1215 11.8252 19.4858C11.0123 19.9 9.9482 19.9 7.82 19.9H6.18001C4.05181 19.9 2.98771 19.9 2.17484 19.4858C1.45983 19.1215 0.8785 18.5402 0.514181 17.8252C0.100006 17.0123 0.100006 15.9482 0.100006 13.82V6.17997ZM6.25 14.2C5.75294 14.2 5.35 14.6029 5.35 15.1C5.35 15.597 5.75294 16 6.25 16H7.75C8.24706 16 8.65 15.597 8.65 15.1C8.65 14.6029 8.24706 14.2 7.75 14.2H6.25Z"/>
  </symbol>
  <symbol id="icon-email" viewBox="0 0 20 16" xmlns="http://www.w3.org/2000/svg">
    <path fill-rule="evenodd" clip-rule="evenodd" d="M5.79998 0.0999759H5.76228H5.76225C4.95421 0.099966 4.29336 0.0999579 3.75629 0.143838C3.20038 0.189258 2.6983 0.286141 2.22941 0.525051C1.49558 0.898957 0.898957 1.49558 0.525051 2.22941C0.28614 2.6983 0.189258 3.20038 0.143838 3.75629C0.0999575 4.29337 0.0999658 4.95421 0.0999759 5.76226V5.76228V5.79998V10.2V10.2377V10.2377C0.0999658 11.0457 0.0999575 11.7066 0.143838 12.2437C0.189258 12.7996 0.28614 13.3017 0.525051 13.7705C0.898957 14.5044 1.49558 15.101 2.22941 15.4749C2.6983 15.7138 3.20038 15.8107 3.75629 15.8561C4.29337 15.9 4.95422 15.9 5.76227 15.9H5.79998H14.2H14.2377C15.0457 15.9 15.7066 15.9 16.2437 15.8561C16.7996 15.8107 17.3017 15.7138 17.7705 15.4749C18.5044 15.101 19.101 14.5044 19.4749 13.7705C19.7138 13.3017 19.8107 12.7996 19.8561 12.2437C19.9 11.7066 19.9 11.0457 19.9 10.2377V10.2V5.79998V5.76227C19.9 4.95422 19.9 4.29337 19.8561 3.75629C19.8107 3.20038 19.7138 2.6983 19.4749 2.22941C19.101 1.49558 18.5044 0.898957 17.7705 0.525051C17.3017 0.286141 16.7996 0.189258 16.2437 0.143838C15.7066 0.0999579 15.0457 0.099966 14.2377 0.0999759H14.2377H14.2H5.79998ZM3.38061 2.01214C3.51618 1.98079 3.68477 1.95568 3.90287 1.93786C4.35798 1.90068 4.94505 1.89998 5.79998 1.89998H14.2C15.0549 1.89998 15.642 1.90068 16.0971 1.93786C16.3152 1.95568 16.4838 1.98079 16.6193 2.01214L12.6103 5.52006C12.0325 6.02564 11.6369 6.371 11.3074 6.61735C10.987 6.85696 10.7832 6.96052 10.6069 7.01267C10.2107 7.12981 9.78921 7.12981 9.3931 7.01267C9.21676 6.96052 9.01295 6.85696 8.69253 6.61735C8.3631 6.371 7.96747 6.02565 7.38967 5.52006L3.38061 2.01214ZM2.05037 3.23996C2.00084 3.39565 1.96243 3.60221 1.93786 3.90287C1.90068 4.35798 1.89998 4.94505 1.89998 5.79998V10.2C1.89998 11.0549 1.90068 11.642 1.93786 12.0971C1.97419 12.5417 2.04079 12.7805 2.12886 12.9534C2.3302 13.3485 2.65146 13.6698 3.0466 13.8711C3.21944 13.9592 3.45827 14.0258 3.90287 14.0621C4.35798 14.0993 4.94505 14.1 5.79998 14.1H14.2C15.0549 14.1 15.642 14.0993 16.0971 14.0621C16.5417 14.0258 16.7805 13.9592 16.9534 13.8711C17.3485 13.6698 17.6698 13.3485 17.8711 12.9534C17.9592 12.7805 18.0258 12.5417 18.0621 12.0971C18.0993 11.642 18.1 11.0549 18.1 10.2V5.79998C18.1 4.94505 18.0993 4.35798 18.0621 3.90287C18.0375 3.60221 17.9991 3.39565 17.9496 3.23996L13.7956 6.8747L13.7694 6.89764C13.2242 7.37465 12.7768 7.76618 12.3854 8.05886C11.9787 8.36296 11.5796 8.60207 11.1173 8.73877C10.388 8.95444 9.61192 8.95444 8.88265 8.73877C8.4204 8.60207 8.02121 8.36296 7.61455 8.05886C7.22317 7.76619 6.77574 7.37468 6.23062 6.89768L6.20436 6.8747L2.05037 3.23996Z"/>
  </symbol>
  <symbol id="icon-geo" viewBox="0 0 16 20" xmlns="http://www.w3.org/2000/svg">
    <path fill-rule="evenodd" clip-rule="evenodd" d="M8 11C9.933 11 11.5 9.433 11.5 7.5C11.5 5.567 9.933 4 8 4C6.067 4 4.5 5.567 4.5 7.5C4.5 9.433 6.067 11 8 11ZM8 9.19999C8.93888 9.19999 9.7 8.43887 9.7 7.49999C9.7 6.5611 8.93888 5.79999 8 5.79999C7.06112 5.79999 6.3 6.5611 6.3 7.49999C6.3 8.43887 7.06112 9.19999 8 9.19999Z"/>
    <path fill-rule="evenodd" clip-rule="evenodd" d="M0.242859 7.76987C0.242859 3.48026 3.71428 0 8 0C12.2857 0 15.7571 3.48026 15.7571 7.76987C15.7571 10.903 13.7831 14.6225 10.1924 18.8679C10.0893 18.9898 9.97622 19.1029 9.8543 19.206C8.64346 20.2301 6.83168 20.0787 5.80758 18.8679L5.2405 18.1974L5.24626 18.1923C2.01172 14.2269 0.242859 10.7357 0.242859 7.76987ZM7.18501 17.7091C7.56768 18.1576 8.24131 18.2128 8.69191 17.8317C8.73739 17.7932 8.77959 17.751 8.81807 17.7055C12.3633 13.5139 13.9571 10.2221 13.9571 7.76987C13.9571 4.47123 11.2885 1.8 8 1.8C4.71154 1.8 2.04286 4.47123 2.04286 7.76987C2.04286 10.2221 3.63673 13.5139 7.18193 17.7055L7.18501 17.7091Z"/>
  </symbol>
  <symbol id="icon-file" viewBox="0 0 17 20" xmlns="http://www.w3.org/2000/svg">
    <path fill-rule="evenodd" clip-rule="evenodd" d="M9.10001 1.90021H6.60001C5.60506 1.90021 4.91298 1.90091 4.3745 1.94491C3.84653 1.98804 3.54596 2.06828 3.31963 2.18359C2.83041 2.43286 2.43266 2.83061 2.18339 3.31984C2.06807 3.54616 1.98784 3.84673 1.9447 4.37471C1.90071 4.91319 1.90001 5.60527 1.90001 6.60021V13.4002C1.90001 14.3952 1.90071 15.0872 1.9447 15.6257C1.98784 16.1537 2.06807 16.4543 2.18339 16.6806C2.43266 17.1698 2.83041 17.5676 3.31963 17.8168C3.54596 17.9321 3.84653 18.0124 4.3745 18.0555C4.91298 18.0995 5.60506 18.1002 6.60001 18.1002H10.4C11.3949 18.1002 12.087 18.0995 12.6255 18.0555C13.1535 18.0124 13.4541 17.9321 13.6804 17.8168C14.1696 17.5676 14.5674 17.1698 14.8166 16.6806C14.9319 16.4543 15.0122 16.1537 15.0553 15.6257C15.0993 15.0872 15.1 14.3952 15.1 13.4002V7.90021H13.2L13.1646 7.90021C12.6347 7.90023 12.1836 7.90024 11.8131 7.86997C11.424 7.83818 11.0454 7.76854 10.6834 7.58413C10.1378 7.3061 9.69412 6.86245 9.41609 6.31678C9.23167 5.95485 9.16204 5.57625 9.13024 5.18709C9.09998 4.81666 9.09999 4.36548 9.10001 3.83561L9.10001 3.80021V1.90021ZM14.3272 6.10021L10.9 2.673V3.80021C10.9 4.37511 10.9007 4.75216 10.9243 5.04052C10.947 5.31836 10.9863 5.43371 11.0199 5.4996C11.1254 5.70658 11.2936 5.87486 11.5006 5.98032C11.5665 6.01389 11.6819 6.05325 11.9597 6.07595C12.2481 6.09951 12.6251 6.10021 13.2 6.10021H14.3272ZM10.439 0.166523C10.1595 0.0994266 9.87272 0.0997805 9.5731 0.100153L9.50589 0.10021H6.60001H6.5616C5.6141 0.100201 4.84835 0.100194 4.22792 0.150884C3.58864 0.203116 3.02482 0.313621 2.50245 0.57978C1.67454 1.00162 1.00142 1.67474 0.579578 2.50265C0.313419 3.02502 0.202912 3.58884 0.15068 4.22813C0.09999 4.84855 0.0999973 5.6143 0.100006 6.5618V6.60021V13.4002V13.4386C0.0999973 14.3861 0.0999899 15.1519 0.15068 15.7723C0.202912 16.4116 0.313419 16.9754 0.579578 17.4978C1.00142 18.3257 1.67454 18.9988 2.50245 19.4206C3.02482 19.6868 3.58864 19.7973 4.22792 19.8495C4.84835 19.9002 5.6141 19.9002 6.5616 19.9002H6.60001H10.4H10.4384C11.3859 19.9002 12.1517 19.9002 12.7721 19.8495C13.4114 19.7973 13.9752 19.6868 14.4976 19.4206C15.3255 18.9988 15.9986 18.3257 16.4204 17.4978C16.6866 16.9754 16.7971 16.4116 16.8493 15.7723C16.9 15.1519 16.9 14.3861 16.9 13.4386V13.4002V7.49432L16.9001 7.42712C16.9004 7.12749 16.9008 6.84074 16.8337 6.56126C16.7749 6.31637 16.6779 6.08227 16.5463 5.86753C16.3962 5.62247 16.1932 5.41996 15.981 5.20836L15.9335 5.16087L11.8393 1.06676L11.7919 1.0192C11.5803 0.807067 11.3777 0.604049 11.1327 0.453874C10.9179 0.322285 10.6838 0.225315 10.439 0.166523Z"/>
  </symbol>
  <symbol id="icon-map" viewBox="0 0 32 16" xmlns="http://www.w3.org/2000/svg">
      <path d="m15.367 3.67.12.007.064.127.111-.047.142-.021.006.113h.239l.075.04.083.01.047-.027.158.054-.008-.247.166-.004.043.052.107.042.079.069.02.01.043-.04-.019-.026.023-.038.03.022.093-.098-.009-.035-.046-.018-.016-.08.109.002.029-.062.032-.018.082.01.019-.057.02-.004.015-.068.053-.031.031-.003.013-.044.025.002.034-.032.02.006.064-.03-.064-.07.041.009-.035-.118.115-.102-.044-.058.026-.008.003-.05-.013-.04-.052-.005.01-.085-.083-.006-.024-.047-.04-.013-.004-.04-.054-.075.023-.034.031-.003.021-.008.002-.03.038-.028.02.022.023-.044-.037.002-.002-.06.11.002.017-.019-.02-.022.006-.02-.025-.037.058.004.006-.03.074.006.003.036.105-.008-.002-.061.073.005.003.052.047.008.008.031.031.008.014.042.002.056.051.014.024-.054-.041-.009-.013-.056.032-.003.014-.06.041.008.018-.034.036-.002.028-.029.162.003.008.056.04.014.009.123-.018.039.025.012.017-.024.093.022.053-.02.007.066-.033.017.009.032-.032.002.003.036-.022.018.146-.003.012-.02.026.002.003.021.076.092.012.057.072-.01-.014-.086.068-.01.018-.1.315-.008-.003.035h.01l-.011.07.12.021.009.022h.066l.028-.027.02-.004.018-.023.047-.007.024-.048.076.002-.004.045.155.162-.03.043-.024.084.023.063-.047.02v.04l.037.04.01.046.217.026.177-.012.035-.088.144-.03.032.028.07-.033h.08l.024-.034.025-.002.016.038v.087l.032.034.02.212.096-.039.143.07.101-.003.01.048.055-.003.054.098.288.021.003.02.039.006.017.735.016.032-.046.009-.105.08-.023.026-.004.217.137-.065.038.084.088.008.073.04-.019.027-.04.004-.029.035-.076-.02-.166.104-.011.082-.08.091-.129-.036-.048.071-.022-.061-.02.007.012.02-.061.017-.02-.032-.037.015-.012.057.033.014.046.099-.008.023.027.018.04-.082.038.005.098.042-.111.101-.198.062.026.062-.041.018-.065.007-.03.049-.12-.05-.044.078-.03.006-.007.018.021.022-.05.056-.108.007-.004.038-.028-.013-.038.034.021.026-.054.046.081.053-.061.03-.086-.052-.03.044-.055.018.016.106-.05.014.011.034-.093-.068-.157.016-.018.036-.047-.015.069-.092-.014-.054.023-.03-.007-.026-.023-.012.051-.066-.084-.071-.054.003-.01-.04-.05.02-.011-.035-.035.005.002.03-.112.045-.021.107h-.054l-.024.045-.067-.007-.058.046.016.035-.099.066h-.053l-.011.017-.05.01-.01.236-.053-.09-.16.069.046.113-.024.045-.083.01-.107.066-.06.027-.046-.023.003-.08.066-.092-.015-.035-.035.011-.023-.063-.232.064-.034-.003-.025.013-.033-.008-.044.01.018-.092-.044-.004-.021-.025-.029-.064-.019.003L18 6.07l-.014-.063-.1.053.026.083-.062.037-.033-.003-.022-.025-.008.032.022.026-.01.05-.019.003-.032-.025-.096.048-.096-.06-.044-.002-.012-.03-.06.02-.026-.045.054-.057.03-.14.034-.049-.017-.096.037-.02.01-.252-.232.007-.023.04-.09.032-.163.117-.07-.053-.106.021-.044-.007.05.064.006.063-.09.065-.324.04-.176.107-.106-.157.083-.047-.049-.117-.064-.022-.185.051-.199-.067-.059-.041-.092.023-.04-.15-.056.027-.025-.02-.036.016.002-.042-.027.022.002-.047-.008-.044-.14-.079-.046.146-.149.016-.028-.059.049-.222-.159-.148.042-.036-.064-.08.106-.092-.035-.026.063-.175-.068-.136-.093-.004-.038-.124.13.012.196-.097.03-.13.034-.184.09-.074.006-.275ZM10.127 10.68l-.064.033-.078.016-.037.023-.033.044-.037.075-.028.078-.005.071-.032.016-.025.04-.002.03-.304.082-1.076.327-.107-.758-.068-.178-.061-.116.014-.043-.088-.109-.01-.136-.437-.126-.152-.06-.224-.216-.046-.173-.112-.135.059-.431.028-.168-.05-.083-.017-.2-.116-.124.027-.098-.042-.17-.028-.047L7 7.973l.022-.017-.003-.173-.134-.01v-.046l-.057-.04-.024.04-.049-.012.002.064-.018.094-.081-.008-.045-.022-.178-.018.03-.073-.032-.07.022-.062-.052-.252-.04-.009-.033.083-.046-.021.011-.03-.09-.039-.06-.052-.006-.102.049-.161-.026-.058.046.022.03-.074.058-.05h.073l.013-.053.092-.002.064.011.074-.041-.018-.03.052-.063.016-.04h.082l-.043-.051.071-.121-.002-.033.033-.065-.01-.056-.05-.023-.002-.028-.035-.01-.003-.095.014-.078-.056-.074.08-.081-.014-.032.095-.108-.012-.016.023.015.014-.005.043-.065.027-.014.015-.024-.013-.05-.03-.066-.012-.082.023-.046.015-.049.022.008.019-.002.025.013h.013l.01-.007.006.006.004.021.017.006.012.018.016-.006-.001-.022.017-.004.005-.01.012.002.006-.009.019-.001.01.004.017-.022-.003-.023.031-.015.025.014.013.016.004.026-.005.013-.024.03-.006.014.006.014.021.018.036.022.156.14.014.005.023-.02.06.003.016.034.048.024.077.057h.014l.016-.012.015-.034.06-.033.037-.01.081-.042.04-.035.041-.03.028-.01.01-.01.004-.012-.005-.036.002-.037.03-.093.011-.016.016-.006.062.031h.045l.022-.018.008-.05.01-.005.035.007.013-.008.005-.018-.012-.048V5.21l.025-.027.004-.002.019.023.006.024.04.02.035.046.035.002.036.018.009-.007.006-.03-.015-.04-.007-.04.004-.003.044-.002.015-.005.018.003.039.029.015.003.04-.025.014.007.017.016.018.004.075-.027.044-.023.015.016.013.043.024.019.029.011.019.031.001.04.023.028.068.045.051.014.013-.005.002-.008-.01-.024.003-.009.062-.028h.038l.02.036.032-.013.011-.04.005-.143.006-.052.019-.008.03-.003.016.026.023.016.012-.001.01-.012.019-.004.014.026h.032l.01.013.036-.033h.011l.018-.016.008.013-.003.024.007.017.056.012.005-.003-.005-.012.003-.01.02-.005.008-.01-.006-.033.018-.008.013-.012.006.003.007-.006.006.003.008-.012.026.01.023.07.01.014.02.003.043-.01.037.004.03.006.015.016.029.058-.002.015-.015.02-.011.043.005.074.019.055.017.01.023.002.065-.023.03.002.008.012-.009.036.006.024.051.024.016.04.024.017.04.006.033-.009.018.001.053.019.086.009.02.008.012.019.014.004.018-.014.064.014.05-.013h.015l.048.063v.009l-.016.007-.002.006v.068l.002.009.008.002.059-.029.13-.032.036-.018.049-.078.078-.197.023-.031.026-.01.05.006.034.017.007.01.002.052.091.109.029.015.09.011.081.006.078-.004.046.009h.057l.074-.026.06-.003.312-.122.018-.015.012-.03.022-.14.067-.327.063-.02.05.023.054-.023.034-.056.052.077.007.073.036.119.061.023.04-.053.02-.014.11.063v.045l-.025.004-.025.082.135.126-.085.056.015.064v.068l.104-.032.069.334.098.15.015.058.163.233.014.057-.036.122-.118-.093-.12.101-.01.118-.118.069.024.127.025.033-.088-.03-.064.08.04.042.135.222-.024.018-.015-.014-.111.017-.02.051.097-.008.053.177.208.197.162-.084.077.066.005.042-.05.063.029.093.243.079.044.046.121.045.121.08.161.295.137.23.068.029-.166.175-.88.59-.056.017-.032-.045-.215-.032.032-.071-.206-.251-.093.013-.061-.112-.128-.184-.453.1-.257.659-.312-.025-.022.227-.229.018-.3.268-.063.094-.086.09-.164.237-.203.24ZM24.619 9.385l.089.056.037.042.094.008.037.09.332-.036.234.315.355-.119.16.064-.004.073.256.108.216.116.232.006.042.06h.035l.042-.026.022.052.024.027.034-.045h.022l-.028.042.025.005.026.001.026.02.024-.043.018-.001-.014.036-.038.027.01.01.033-.005-.026.033.247.278.058.212.121.126-.023.155.01.058.027.023.077-.027.013.017.065.038.028.024.129.026.01.014.02.073-.028.13-.08.112-.039-.027-.094-.08-.04-.01-.06.012-.044.017-.07.047-.049.005-.021-.013-.013-.037-.008-.004-.04.01-.019-.005-.005-.041-.008-.016-.01-.046-.027-.02-.014-.024-.032-.017-.007.011-.015.007-.025-.005-.036.027-.01.02-.028.007-.011.014-.02.012-.037.006-.012-.02h-.004l-.036.033-.023-.005-.008-.006-.023.02-.037.006-.015-.004-.005.007-.028.008-.011.02-.008.002-.036-.01-.001.012-.012.011-.001.013-.008.008h-.016l-.029.01-.048-.002-.045.037-.027.003-.028-.017-.049-.014-.017-.016-.005.002-.004.022-.015.013-.067.027-.035-.004-.034.005-.015-.012-.017.004-.019.015-.013.035-.035.024h-.029l-.015-.02-.01-.003-.02.008-.029.023-.018.005-.032.002-.019-.016-.025.002-.025-.006-.007.01.01.02-.003.01-.01-.007-.012.003-.043.045-.076.046-.011.013-.02.005-.008.013.008.01.02-.015h.017l.024.016.02.002.022.063.03.016.06-.01.024-.02.056.008.027-.02.019.003.011.012-.004.013.006.003.032-.009.018.034.062.03.026.024.004.027-.064.02-.03.03.032.047-.01.02-.02.08-.016.028.015.048.015.113.015.042v.079l.01.068.023.053-.005.02.001.01.01.014-.001.028.039.083-.002.03.012.054.014.01.038.082.095.228.011.015.01.034-.009.03.002.02-.02.018-.036.076.001.007.01.01.051-.003.01.005.002.027.016.03v.024l.014.03-.017.03-.024.002-.017.014-.02-.011-.02-.004-.056.016-.068.053-.07.02-.015.017v.03l.012.021.024.024.034.021.064.016.017.027-.002.005-.008-.002-.021.011-.009-.008-.003.008-.013.005-.012-.005-.005.01-.055.022v.01l-.016.01-.012-.003-.02.007v-.008l-.02.008-.004-.01-.007-.001-.041.007-.002.03-.013.029-.015.06-.026.025-.012.042.008.038.024.048.022.02.02.002.009.008-.015.016-.031.015-.005.022v.033l.015.02-.001.053.035.024-.01.029.019.024-.007.035-.024.014h-.014l-.013-.01h-.01l-.02.017-.012-.002-.02.013-.006-.003-.005-.017.006-.048-.014-.02-.012-.034-.017-.01-.03-.007-.03-.028-.012-.034-.01-.018-.01-.006-.044-.003-.007.014-.01.003-.005-.007v-.013l-.006-.002-.033-.003-.012-.007-.018.003-.01-.016-.06-.009-.036.024-.032-.005h-.047l-.019-.03-.067-.05-.017-.039-.01-.008-.043-.033-.036-.009-.014-.017-.01-.004-.032-.052-.007-.04.003-.018.01-.012-.006-.004h-.018l-.04.013-.011.025-.008.005-.023-.029-.013-.007-.03.003-.02-.008-.022.006-.02-.013-.04-.007-.019-.01-.02.002-.022-.019-.022.001-.01-.008-.029.01-.02-.027-.077-.017-.017-.026-.029-.01-.065.025-.024-.008-.012.024-.019.005-.114-.025-.015.023-.037-.006-.018.005-.018.02-.015-.02-.013-.008h-.012l-.028.017-.024-.025-.023.007-.028-.013-.025.002-.014-.006-.022-.024-.061.004-.046-.01h-.044l-.04-.015-.036.005-.023-.009-.079.02-.062.002-.028-.008-.021-.03-.014-.007-.066-.006-.033.005-.085-.022-.062.001-.032.03-.035.005-.013.031-.012.01-.085-.008-.031.003-.039-.009-.021.03-.03.002-.073.02h-.018l-.006-.006-.012-.033-.023-.013-.1-.005-.074.014-.009-.004-.012-.016-.034-.004-.025-.02-.024.011-.025-.007-.036.018h-.006l-.007-.034-.039.016-.041-.025-.073.008-.008-.016.043-.012.02-.04-.14-.063-.073-.014-.017-.07-.03-.013.011-.042-.028-.016.008-.083.1-.116-.028-.043-.111.013.01-.034-.041-.005-.026.016-.126-.042v-.063l.163-.15.028-.012.018-.046-.017-.071.033-.037.017-.042-.004-.123-.077-.051-.043-.055-.046-.006-.071-.063-.013-.002-.167-.017-.142-.131-.024-.036.034-.121-.072-.118-.24-.162-.014-.043-.029-.034-.006-.123-.21-.005-.013-.188.226.016-.041-.103-.032-.376.07-.115.06-.125.066-.104.086-.092.158-.157.203-.176.427-.235.177.034.229-.04.254.043v.03l.042.011.051-.058.021.06.023-.026.068.023.024-.053.048.007.069.02.113.048-.08-.078.051-.01.079.04.074-.01.074.037.025.06.056-.007-.001-.066.226-.024-.032-.54.02-.037.193.041.11-.117.095.096.12-.147.126.101Z"/>
      <path d="m3.275 10.454-.005.004-.012-.003-.023-.046-.007-.004.006-.007-.021-.044-.004-.03-.017-.017-.003-.009.004-.006.012-.004.04.016.037.04.013.045-.02.065ZM6.145 7.3l.06.052.09.04-.011.029.045.022.034-.084.039.01.052.252-.022.062.032.07-.03.073.178.018.044.022.082.007.018-.094-.002-.063.05.012.023-.04.057.04v.045l.134.01.003.174L7 7.973l-.024.17.028.047.042.171-.027.098.116.125.017.2.05.082-.028.168-.059.43.111.136.047.173.224.216.151.06.438.126.01.136.088.109-.014.043.06.115-.066-.038-.058.004-.035-.031-.052.025-.079-.023-.02-.057-.032-.014-.038.025-.039-.022-.055-.015-.013-.033.012-.057-.026-.074-.036-.005-.022.011-.011.019-.022.007-.048-.03-.09-.122-.176.167-.083-.01-.295.029-.143.053-.113.003-.069.026-.048.011-.046-.002-.053.012-.015.024-.115-.014.01.046-.04.074-.17.12.079.045-.049.045-.075.043-.09.038-.054.007-.05.031-.115-.014-.024.057-.1-.005-.171-.041-.001-.01.028.005.013-.005-.028-.01-.005-.01.003-.024.016-.007-.003-.016.008-.006.057-.006-.03-.017-.005-.015.01-.01.03-.008-.016-.018-.01-.025-.019-.014-.004-.013.007-.006h.032l.011-.02-.042-.035-.014-.006-.023-.025.016-.02h.026l-.027-.012-.003-.015-.01-.003.008-.013-.002-.014.021-.015.033.004-.012-.02.012-.007-.016-.005-.002-.01.026-.014.018-.03.015.018-.002-.015.005-.014-.005-.005-.01.003-.007-.011.01-.016.002-.02.017-.024.002-.028.046-.047.021-.007-.02-.007-.001-.006.024-.004.004-.005-.016-.008-.015-.024-.032-.027.01-.056-.008-.038.028-.026-.03-.01.01-.025-.014-.05-.007-.003-.01.005-.012-.005-.017.01-.01-.003.01-.017.013-.004-.025-.024-.008.003-.006-.004.006-.025.015-.01-.01-.019-.015-.006-.005.003-.018.028-.037.021-.02.031v.027l-.013-.002-.013-.008.001-.019-.006-.01.003-.013.01-.01-.005-.015-.013-.009-.015.006-.01.011-.007-.002.002-.027.006-.01-.014-.004-.002-.01-.031-.012-.004-.007.003-.006.014.004.016-.018-.006-.008.003-.018-.008-.014-.017-.012-.11.021-.03.03-.017.008-.01-.001-.013-.029-.016-.003-.02.089-.01.01-.022.009h-.033l-.055-.03-.074-.012-.054-.03-.04.005-.016-.009v-.008l-.01.004-.004-.009-.048-.016-.054-.008-.027.002-.029-.02.005.04.017.016.02.01.01.016-.003.042-.01.02-.005-.003.004.011H4.71l-.013-.033.007-.03-.016-.016-.013-.002-.004-.015-.015-.013-.018-.064h-.006l-.002.012h-.008l-.01.014-.018.003-.025.025-.008.004-.005-.006.02-.02.019-.01.007-.03h.007l.002-.006-.006-.01.013-.01.002-.02-.034.018-.027.032.016-.031v-.011l-.043-.048-.097-.027-.03.004-.01-.008-.02.009-.037-.012-.017.008h-.015l-.053.043h-.012l-.01.008-.006.027-.012-.003-.012.007-.037-.001-.017-.009h-.018l-.042-.02-.035.009-.016.01-.016.021-.006.003-.007-.007-.011.002-.034.061-.02.019h-.015l-.007-.007.007-.028-.003-.013-.01-.005-.01.005-.025.017-.019.024-.005.039-.02.051-.01.01-.013-.004-.008-.01.01-.033-.005-.007-.025.02-.011-.001-.007-.043-.019-.027-.036.06-.008.021-.014.014-.005.001-.01-.01.007-.033h-.009l-.021.011-.011.015.007.009-.026.02-.019.038-.009.032-.013.02-.01-.01-.003-.076-.05.05-.023.016-.053.077-.01.032-.05-.014-.028.012-.03.045.005.035-.01.015-.02.009-.013.017-.032-.01-.02-.016.01.028-.006.022.036.028-.008.004-.023-.01-.005.005.031.025.012.019-.003.008-.02-.005-.049-.027-.016-.002-.02.03-.012-.002-.01-.01-.01.002-.006.03.01.018-.014.014-.01-.006-.012-.026-.02-.023h-.006l.004.03.013.019v.011l.023.022.005.019-.005.005-.051-.028-.025-.02-.004-.008h-.018l-.03-.022h-.01l-.006.013-.022-.043-.009-.005.003-.014-.005-.01.008-.013.023.006-.03-.032.002-.013-.004-.008-.039-.013-.017.002-.006.004.014.015h.014l.007.008.004.012-.004.014.009.034.039.041.004.015-.005.015.016.01.004.008v.01l-.006.007h-.013l-.007.014h-.007l-.023-.017.002-.01-.013-.042.004-.015-.01-.004.004-.01-.022-.052-.024-.021-.032-.018-.002-.008-.008-.006-.015-.003.006.008-.004.005-.019-.014-.002.004.017.035.02.008.002-.013.009.006.004.016.012.012-.003.011.005.017-.01-.002-.015-.02-.023-.014-.004.006.011.008.01.022-.019.006.002-.023-.017-.014-.012-.02.002-.009.007-.004-.015-.014h-.013l-.004.005.01.02-.012.006.016.014.002.015.015.018.02.017-.002.009-.041-.022-.074-.02-.013-.02-.03-.017-.021-.004-.038-.018-.032-.029-.026.002-.026-.035-.01-.027-.026-.013h-.013l-.014-.01-.024-.004-.025-.048-.016.01-.044-.01-.011-.011.004-.02L2.324 10 2.3 9.997l-.021-.01v-.022L2.3 9.91l.052-.043.057.003.023.018.005.03.042.04.037.003.084-.01.031-.024.037-.052-.026-.071-.14-.183-.037-.08-.053-.128-.014-.044-.026-.172-.1-.001-.07-.019-.076-.118-.033-.075-.038-.065-.097-.09-.038-.004-.03.01-.128.011-.076.002-.1-.03-.108-.045.001.03-.008.058-.017.06-.134-.077-.043-.042-.017-.029.032-.015.003-.007-.068-.117-.04-.057.09-.042.016-.022.027.002.009-.021-.083-.029-.002-.019.018-.035-.002-.031-.007-.019-.007-.009-.045-.02-.015-.024.113.036.087-.004.38.057.658.07.206.056.366.139-.006-.11.233.011.04-.031.126.003.151-.15.41-.263.047-.001.07-.064.03.015.07-.04.04-.126.155-.01.089-.039.315.052.02.04-.025.017-.006.088.239.052.027-.045.032-.004.164.09.08-.003.053-.03-.017-.053.052-.211.09-.004-.011-.263.066.028.044-.1.046.021h.26l.115-.034-.02-.044.145-.117.025-.036ZM21.074 4.991l.257.09.003.083.033.048-.033.097-.017.085.005.112-.04.009-.02.04.032.048-.056.05.11.116.11-.027.108-.009.06-.048.01.03.122.023.041.049-.043.032.05.122.052-.126.104.107.044.002.057.095-.026.015.02.055.086.033.013.045-.026.01.012.02-.04.013-.009-.01-.101.04v.025l-.047.03.026.085.048-.003.014.031.075-.021.154-.108.037-.047.218.007.027-.014.01-.036.036-.013.033.033.262-.069.097.055.035-.008.035-.09.017.013.059-.032.084-.01.084.049.028-.047-.005-.11.047-.178.076-.072.144-.036.132.134.156.006.123.076.044.15-.06.079.087.059-.017.063-.11.087-.059.079-.105.046-.033.022-.068.002-.021.085.023.033-.018.067.02.05-.015.058-.067.1-.194.069-.176.081-.012.063.06.066-.002.037.063.02.113.089.002.069.06.033.072.073-.072.029-.015-.021-.062.03.007.043-.018.07.053.101.305-.048.031.088-.031.118v.045l-.137.136-.057-.019-.038.003-.039.034.008.056-.059.017.028.055.064.029.01.047.117-.003.036.01-.016.038-.066.003-.02.055.096.084.076-.006.053.041-.14.049.045.061h-.05l-.008.089-.037-.002-.036.151-.045.095.015.043.017.007.04.162.007.055-.068-.029-.07.01.003.081-.031.075-.06.021.068.033.038.064.073.051.11.04.037-.095.046-.028.088.041.075-.032.032.54-.226.025.001.066-.056.008-.025-.06-.074-.038-.074.01-.079-.04-.052.01.08.078-.112-.048-.069-.02-.048-.007-.024.053-.068-.023-.023.026-.02-.06-.052.058-.043-.01.001-.031-.254-.043-.229.04-.177-.034-.427.235-.203.176-.159.157-.085.092-.065.104-1.234-.014-.714.025-.132-.009-.598.015-1.057.002-1.412-.021-.012-.1-.036-.01-.296.016-.974-.254-.138-.074-.135-.147-.156-.013-.375-.194-.077-.002-.374-.14-.033-.032-.072.043-.221-.119-.1.007-.112-.072-.089-.08-.308.054.205-.154.88-.59.166-.175-.068-.03-.137-.229.21-.183-.04-.129.278-.059-.057-.07.025-.04-.028-.065.159.006.038-.277.575.091.056-.03.054.007.085-.029.05-.116.232-.008.224-.238.113-.013.049-.163.098.01.04-.095.114-.1.157-.088.248-.274.166-.204-.035-.068.021-.022-.026-.049.027-.03.124-.016.137-.057.052-.043.024-.055.043-.044-.013-.03-.08-.043-.004-.024-.042-.026-.006-.063-.05-.064.044.007.106-.021.07.053.162-.117.091-.031.023-.041.232-.007-.01.251-.037.021.017.096-.033.05-.031.139-.054.057.026.044.06-.019.012.03.044.003.096.06.096-.05.032.026.02-.003.01-.05-.023-.026.008-.032.022.025.033.003.062-.037-.027-.083.101-.053.014.063.023-.036.02-.003.028.064.021.025.044.004-.018.092.044-.01.033.008.025-.013.034.003.232-.064.023.063.035-.01.015.034-.066.092-.003.08.046.023.06-.027.107-.066.083-.01.024-.045-.047-.113.161-.07.054.09.01-.235.049-.01.011-.017h.053l.099-.066-.016-.035.058-.046.067.007.024-.045h.054l.02-.107.113-.046-.002-.029.035-.005.01.034.051-.018.01.04.054-.004.084.071-.05.066.022.012.007.025-.023.031.014.054-.069.092.047.015.018-.036.157-.016.093.068-.01-.034.05-.014L20 5.828l.055-.018.03-.044.086.053.061-.031-.08-.053.053-.046-.02-.026.037-.034.028.013.004-.038.108-.007.05-.056-.021-.022.007-.018.03-.006.044-.077.12.049.03-.05.064-.006.042-.018-.026-.062.198-.062.11-.101-.097-.042-.038-.005-.04.082-.027-.018.008-.023-.046-.099-.033-.014.012-.057.037-.015.02.032.06-.016-.011-.021.02-.007.022.061.048-.071.128.036Z"/>
      <path d="m15.315 1.015.028-.003.058-.02.039.14.016.022-.022.03.085.223-.143.05.14.084.053.005.04.103-.02.02-.068.006-.195.099.078.24.095-.02.002.194-.06.057-.034.043.032.094.126.013.008.319.112.067-.018.08-.11-.022-.049.037-.078-.005-.033.038.027.117.037.003.006.11-.016-.001.005.135-.08.02-.009.377-.005.275-.091.074-.034.184-.03.13-.196.097-.13-.012.038.124.093.004.068.136-.063.175.035.026-.106.091.064.08-.042.037.159.148-.05.222.03.059.148-.016.046-.146.14.08.008.043-.002.047.027-.022-.002.042.036-.017.025.02.057-.025.039.15.092-.024.06.04.198.068.185-.051.064.022.049.117-.083.047.106.157.176-.107.325-.04.089-.065.042.026.004.024.08.043.013.03-.043.044-.024.055-.052.043-.137.057-.124.015-.027.031.026.049-.02.022.034.068-.166.204-.248.274-.157.088-.114.1-.04.095-.098-.01-.049.163-.113.013-.224.238-.233.008-.05.116-.084.03-.054-.008-.056.03-.575-.091-.038.277-.159-.006.028.065-.025.04.057.07-.278.06.04.128-.21.183-.16-.294-.122-.081-.121-.045-.044-.046-.243-.08-.029-.092.05-.063-.005-.042-.077-.066-.162.084-.208-.197-.053-.177-.097.008.02-.05.111-.018.015.014.024-.018-.136-.222-.039-.042.064-.08.088.03-.025-.033-.024-.127.118-.07.01-.117.12-.101.118.093.036-.122-.014-.057-.163-.233-.015-.057-.098-.151-.069-.334-.104.032v-.068l-.015-.064.085-.056-.135-.126.025-.082.025-.004v-.045l-.11-.063-.02.014-.04.053-.06-.023-.037-.12-.007-.072-.052-.077-.034.056-.055.023-.049-.023.004-.001-.068-.06-.024-.026-.031-.084-.02-.016-.024-.006-.052.036-.023.002-.046-.012-.08-.053-.036-.002-.01.006-.017-.015-.07.001-.008-.032-.022-.004-.009-.03-.017-.024-.011-.037.009-.031-.005-.009-.06-.006-.166.002-.057-.013-.035-.015-.067-.053-.009-.015.09-.086.009-.01-.003-.02-.032-.01-.054-.007-.166-.104-.006.007.008.017v.02l-.023.002-.008-.003-.03-.018-.03-.043-.005-.015-.001-.025.01-.043.049-.009.072-.002.032-.013.04-.032.037-.05.095-.085.028-.015.08.013.013-.007h.025l.017-.006.035-.031.02-.042.034-.003.092-.046.024-.033.05-.032.006-.01-.038-.088-.031-.052v-.046l-.004-.008-.06-.005-.033-.011-.004-.01-.002-.109-.01-.01-.06-.012-.002-.012-.022-.007.001-.103.01-.012.072-.013.02-.013.017-.017.015-.036.09-.061.042-.05-.008-.018-.022-.02-.006-.042.032-.002.036.014.01-.023.08-.05.026.007.038.04.036.006.023-.014.043-.043.031.01.009.008.016.001.023.014.056.052.016.002.039-.042.02.004.013-.006.041-.001.01.005.037-.019h.011l.05.06.036.01.039-.02.057-.043.002-.07-.021-.062-.024-.005-.034-.015-.08.004-.094-.037-.03-.028-.025-.05-.044-.03-.019.006-.005.03-.01.006-.077.003-.04-.011-.024-.03-.027-.022-.033-.008-.037.004-.044-.003-.045-.028-.01-.025-.008-.082.012-.018.046-.044.007-.063.01-.015.032-.005.02.017h.036l.01.012.004.02.017.009.02.001.027-.004.028-.014.019-.02.026-.013.007-.03-.025-.06-.04-.02-.065.004-.014.02-.03.016-.044-.008-.104-.004-.026-.03-.014-.006-.023-.001-.028-.015-.088-.005-.005-.008v-.035l.007-.018.06-.003.008.01.006.024.008.005.008-.005.005-.069.008-.007.04-.014.03-.054.038-.026.012-.017V1.99l-.008-.02-.046-.036-.007-.023-.03-.008-.028.007-.022-.017-.03-.002-.004-.019.012-.022.028-.028.047.001.043-.01.021.046.021.01.031-.002.004-.008-.007-.024.019-.043-.024-.041.008-.026.033-.032.005-.015.018-.008.03.001.017-.013.05.007.01.014.015.064.018.015.027.003.02.011.011.04.012.01.02-.051.014-.019.032-.008.027-.013.01.024.03.03.015-.01.008-.02-.002-.016.026-.012.004.007-.012.015.005.006.022-.01.02.012-.023.04-.001.01.042.012.014.014h.024l.034-.004.01-.008v-.019l-.021-.044-.007-.026.01-.014h.017l.025-.019h.022l.026.02.05.008.015-.009.01.005.072.002.029-.015.021-.001.014-.01.012.001.039.035-.014.017-.043.02-.001.01.022.062.01.013.033.013.024.017.014.001.01-.016-.01-.025.006-.016.015-.016.012-.03.03-.012.01-.014.001-.011.034-.025.011-.003.016-.028.027-.01.01-.01.014-.004.014-.02-.005-.014.003-.008.026.004.059-.006.03.012h.036l.032.009.044-.01.02-.009.01-.013.007-.034-.012-.026.005-.014.006-.006.026-.005.009-.008.02-.002.004.01.01.004.034-.012.078.011.013-.007.04-.006.007-.01.018.009.008-.013.011.005.074-.028.008-.009.031-.006.032-.018.05-.01.005-.01.025.004.027-.013.02.017.011-.007h.011l.006-.005.012.008.01-.004.004-.022.012-.018.006.008.011-.003-.006.023.002.006.013.002.022-.018.014-.026.019.008.013-.006.015.011.02-.004.012.003.025-.02.03.004.025-.012.028.001.017-.006.06.007.018-.008.008-.014v-.013l.005-.006.014-.003.01.008.016.003.014-.01.015-.002.022-.011.003-.013.015-.012.02-.003.009.006.061-.015.006.009-.004.005v.041l.007.003.041-.011.036-.02.046-.033.03-.014.013.002.036.025.03.028.034.045.083-.003.012-.015V1.32l-.02-.078-.017-.025.015-.046-.006-.044.01-.011.055-.038.051-.02h.023l.054.015.016-.005.002-.02-.026-.034.002-.02.011-.013.025-.01.063.017h.035l.029.011.043.029.02.002.016-.008L15.18 1l.012-.03.002-.023.014-.027.045-.02.033-.003.011.002.009.013-.015.053v.032l.023.019ZM10.165 11.11l.026-.018.013-.027.013-.017.027.014.013.015.025.008h.034l.016.029-.009.033.007.057-.003.037-.02.023.023.045.016.058.028.017.023.022.012.031.001.029-.37-.257.004-.037.016-.01v-.035l.008-.016h.025l.02.01h.032l.02-.01Zm.607-.026h-.08l.006-.13.063-.015.125-.007.095.01.019.038.071.012.077.003.01.018h-.198l-.106.056-.082.015Zm1.571-2.127.061.112.093-.013.206.25-.032.072.215.033.032.045.057-.018-.206.155.308-.056.09.081.112.073.1-.007.22.118.072-.042.033.031.374.141.077.002.375.194.156.012.136.148.138.073.974.254.296-.016.036.01.012.1-.01.085.117.087.023.07-.022.045-.045.062-.024.075-.006.106-.048.167.142.113.118.049.005.703-.015.02-.009.062.08.075.045-.014.086.046.002.033.085.1.205.14-.053.05-.028-.022-.046.018-.038.039.016.02.022.055-.01.106-.031.015-.074-.061v.155l-.07.07.006.033-.016.08-.075.02.022.095.032-.018-.012-.062.041-.022-.008.044.043-.002-.013.053.03.066.052-.014-.003.033-.073.045-.247.118-.2.071-.186.135-.21.203-.105-.062-.301.3-.065-.014-.006-.582-.203.092-.107-.331-.024-.094-.175-.15-.091-.087-.092-.195-.016-.018-.026-.014h-.045l-.033.009-.352.161-.017.003-.449-.027-.29-.029-.105-.016-.33.056-.678.127h-.013l-.026-.024-.52-.617-.099-.095-.036-.109-.349-.242.037-.032.023-.011.026-.072.01-.072-.017-.077-.031-.098-.03-.035-.045-.003-.016-.047-.033-.027-.02-.062v-.043l.02-.042-.002-.135-.017-.06-.035-.025.009-.037.028-.062.003-.06-.028-.107-.036-.038-.006-.072.039-.025.02-.105.016-.02.01-.036.105-.024.026-.035.012-.045.07-.062.078-.014.054-.046.07-.025.073-.042.046-.077.013-.122-.003-.061-.029-.005-.04.032-.115-.02-.103.005-.074-.087.005-.122.012-.051-.053-.016-.037-.031-.103.004-.004.035.041.02.037.004.05.035v.047l-.03.016-.029.032-.04.02-.05-.024-.057-.016v.114l-.028.019-.01-.035.005-.098-.02-.04-.037-.034h-.051l-.17.108-.03.04-.005.073.022.027.026.055.018.025.052.022h.042l.035-.017.043-.011.092-.007.021.038.033.025.045.015.058-.038.028-.034.033-.006.007.065.059.095-.002.073-.015.054-.08.048h-.042l-.099.018-.047-.015-.043-.045-.04-.021-.118-.024-.06-.006-.033.018-.068.06-.052.004-.024-.014.014-.07-.016-.025-.005-.045.002-.055-.03-.035-.045-.008h-.125l-.024.005.001.04.082.125.02.042-.014.048.017.127-.009.05-.02.033-.025.012-.026-.013-.031.088-.028.022-.033-.012-.042.004-.042.015h-.04l-.005-.027.002-.035.009-.04.043-.064.031-.033.014-.03-.031-.022-.037-.018-.033.018-.04.038-.046.004-.046-.007-.02-.017-.015-.005.203-.24.164-.237.085-.09.063-.094.301-.268.229-.018.021-.227.313.025.256-.659.454-.1.127.184ZM3.851 11.871l.003.004.019-.01.01.004-.037.023-.012.015.003.014-.006.002-.006-.017.009-.029-.007-.042.004-.004.015.02.005.02Zm.051-.122.01.003.012-.006.01-.01.006-.019.006.026.01-.008.003.007-.005.045.004.015.034.017-.04-.008-.005.01-.024.005v-.008l.017-.014-.02-.008.01-.019-.001-.011-.026-.002-.031-.036-.001-.008.019-.017.003.004-.012.015.021.027Zm-.461-.123.027.007.015.013-.039.005-.018.024-.002.028.01.025.004.032.01.014h.008l.005-.01.003.003-.009.028.019.025.044.022.04-.015.006.002.003.005-.015.03-.005.001-.01-.012-.054-.008-.024-.013-.03-.045-.024-.08.016-.05.001-.023.019-.008Zm.2-.015.03.005.01.026-.007.027.007.02-.02.033v.018l-.008.015-.017.011-.01.001-.016.017-.005.01.006.016-.005.004-.01-.007-.004-.02.004-.01-.006-.022.01-.022v-.016l-.005-.01-.017-.015.003-.02-.011-.022.016-.02.027.003.027-.022Zm1.726-.455.005.001.006-.01.008-.002.009.006.02.052v.023l.01.02-.004.014.004.022-.001.005-.026.002.01.015-.002.004-.038-.015-.008-.022-.02-.029-.025-.023-.01-.018.007-.011.036-.027.002-.004-.013-.011v-.01l.018.008.012.01Zm.128-.263.171.04.1.006.025-.057.115.014.05-.031.053-.007.09-.038.076-.043.048-.045-.078-.044.17-.121.04-.074-.01-.046.115.014.015-.024.053-.012.046.002.048-.01.069-.027.113-.003.143-.053.295-.03.082.011.176-.167.09.123.049.029.021-.007.012-.018.021-.011.037.004.026.074-.012.057.012.033.056.015.038.022.038-.025.033.014.02.057.079.023.051-.025.035.031.059-.004.066.038.068.179.107.758-.529.166.002 3.596-.099-.003-.044.042-.021-.016-.01-.002-.073.012-.028.014-.008.02-.008.007-.011-.008-.006-.017-.013-.016-.008.003v.02l-.015.01-.015-.004-.038-.021-.043-.038-.05-.062-.043-.033-.034-.044-.069-.109-.055-.126-.035-.049-.042-.039L7.1 14.8l-.003-.02.007-.065-.034-.047-.057-.061-.285-.193-.124-.079-.037-.02-.036-.014-.176.005-.273.042-.124.032-.215.091-.074.024-.054.035-.247.212-.139.11.001-.018.032-.073.004-.045v-.03l-.01-.037-.031-.04.006-.041-.019-.018.012-.076.013-.026.053-.062.034-.056.067-.162.016-.077-.008-.044-.019-.034-.063-.07-.004-.012.014-.02-.003.018.009.019.04.03.028.036.023.06.018-.02.01-.024.004-.051-.007-.05-.015-.012h-.033l-.016-.014-.025.01.01-.018-.015-.042-.103-.029-.031-.005-.06.009-.026.018-.016.024h-.004l-.042-.065-.021-.015-.016-.003h-.027l-.012-.004-.043.007-.058.017-.046.021h-.015l-.013-.012-.049-.075-.005-.02-.028-.04-.012-.044-.086-.078.01-.01.001-.017-.015-.046-.038-.004-.071.014-.01.01-.041-.002-.101.016-.021-.006-.003-.015.005-.043.03-.12.003-.079-.006-.054-.012-.02-.005-.035-.015-.035-.035-.031-.005-.018-.024-.014-.01-.003-.005.006-.004-.003-.029-.047-.037-.082-.032-.039-.028-.145-.037-.05-.01-.01-.03-.006-.014-.017.006-.066-.011-.047-.024-.057-.038-.036-.08-.035-.057-.014-.139-.01-.046-.018-.053-.036-.023-.034-.003-.014-.002-.143-.01-.043v-.003l.02.03v.014l.01-.002.036-.101.029.004.014-.003.009.008.023-.002.033.013.042-.004.035.006.024-.012.028.02.077.007.035-.006.014-.022.01-.002.015.01.053.015.021.031.007.001.008.017.017.007.02-.003-.009.016.009.021.067.044.08.002.022-.018.017-.023.018-.01.006-.016.064-.016h.01l.003.007-.01.015v.007l.008-.003.021.023.017-.004.008-.008v-.011l.04.017.025-.009.005-.008-.007-.016-.028-.022-.044-.019-.093.001-.03.008.001-.013.013-.012-.003-.014-.019.013-.003-.004.001-.034-.021-.042-.041-.057-.025-.008-.04-.036-.036-.018-.001-.007-.023-.018-.014-.005-.002.013-.017.008-.03-.003-.03.005-.027-.015-.002-.01.028.01-.008-.012.005-.018.01-.015-.012-.01v-.016l.06-.08.01-.007.032-.014h.011l.02.008.008-.003.06-.06.026-.013.014.001.026.014h.014l.005-.028-.009-.08.008-.036.005-.012.011-.008.009-.037.024-.04.019-.013.01-.019.015-.004.026-.035.011-.007.016.02.009.005.063-.004.025-.006.008-.012.027-.007.052-.03.007-.017.025-.031.015.001.005.01.016.008.01-.007.023.016.041.004.028.02.014.002.038-.003.04-.016h.03l.037.011.056-.007h.05l.022-.004.033-.015h.022l.044-.01.033.012.066.003.01.01.012.028.03.022.034.003.01-.002v-.01l.048.023.027.001v-.01l-.05-.022.01-.004.003-.01-.01-.013v-.019l-.016-.019-.004-.014v-.027l.007-.01.04.017.036.026.038.006.032.035.036.025.005-.006-.035-.03-.036-.054-.011-.004-.028.003-.015-.023-.047-.021.005-.012.017-.01-.007-.011.013-.008.028-.012.022-.002.027.005.004-.004-.016-.029v-.016l-.013.003-.016.026-.035.016-.017.013-.005-.003.004-.012-.009-.006.004-.018-.023-.003.02-.005-.014-.007v-.006l.024-.02.015-.003-.001-.015.026-.003.009.015.026.016.006-.002-.041-.054-.037-.028.019-.005.015-.014-.002-.009h-.013v-.01l.02-.004.003.006.01-.004v.005l.007.001.013-.006.008-.01-.02.003-.033-.02ZM23.36 1.318l.035-.002.016.009.008.013.007.053-.024.035.006.04-.003.016-.031.034-.033.017-.006.04-.023.008-.047.033-.015-.006-.02-.036-.025.01-.017-.002-.031-.018-.04-.004h-.015l-.007.005-.003.02.006.025.05.064.006.05.03.055.16.15.603.466.215.198.039.044.135.214.117.171.14.243.005-.005.084.157-.006.004.242.41.044.098.066.098.01.025.03.04.05.096.006-.004.008.014-.006.004.059.12.015.014-.001.01.074.149-.056.006-.02.112-.114.028.02.063-.097.09-.02-.023-.15.02.004.07.038-.007-.011.046.007.054-.04-.013-.152.094-.095.028-.016-.037-.046.02-.01.04-.08.042-.017-.013-.064.059.09.124.02.114.056.017.035.05.06.046.05.024.155.099-.027.25.07.02.022.145-.051.051-.128.224-.103.045-.121-.029-.32-.128-.045-.074-.05.028-.085-.06.06-.078-.045-.15-.123-.076-.156-.006-.132-.134-.144.036-.076.072-.047.177.005.11-.028.048-.084-.048-.084.009-.059.032-.017-.012-.035.089-.035.008-.097-.055-.262.07-.033-.034-.036.013-.01.036-.027.014-.218-.007-.037.047-.154.108-.075.021-.014-.03-.048.002-.026-.085.048-.03-.001-.024.101-.041.008.01.04-.012-.01-.02.025-.011-.013-.045-.086-.033-.02-.055.026-.015-.057-.095-.044-.002-.104-.107-.052.126-.05-.122.043-.032-.04-.05-.123-.022-.01-.03-.06.048-.108.009-.11.027-.11-.116.056-.05-.032-.048.02-.04.04-.009-.005-.112.017-.085.033-.097-.033-.048-.003-.083-.257-.09.08-.091.012-.082.166-.104.076.02.03-.035.04-.004.018-.027-.073-.04-.088-.008-.038-.084-.137.065.004-.217.023-.027.105-.08.046-.008-.016-.032-.017-.735-.04-.005-.002-.021-.004-.046-.14-.01-.037-.097.015-.044.035.046.054.008.032.065.037-.015-.01-.113.047-.019-.007-.062.038-.02-.042-.108-.074.025-.034-.01-.045.116-.1.001-.02-.095.053-.06-.024-.049-.083.056-.018-.018.045-.035.028-.068.043-.062-.005-.042.043-.02-.002-.026.038-.02-.035-.052-.039.025-.012-.028-.042.015-.003.026-.107.09-.018-.107.017-.113.063.03.029-.028-.062-.094-.039-.083.097-.09.013-.055.038.01.019-.079.052.006.066.04.052-.075.128.028-.008.083.065.006.014-.062.054.01-.008.026.027.01v.047l.013.008.002.009-.005.027.091.033.06-.142-.032-.019.023-.106.126.02.033-.108.043.007.021-.01.012-.021.011-.047.007-.006.025.01.101-.002.01.006.017.03.017-.008.088-.068.044-.04.034-.014.09-.067.052-.027.022-.025v-.025l-.064-.087.1-.05.052.022.008-.001.458-.205.003-.01-.019-.024v-.007l.021-.06.007-.001.078.033.08.007.036-.002.04-.026.07.002.043-.042.02-.045.04-.003.052-.03.04-.017.014.002.005.032-.003.005-.113.06v.01Z"/>
      <path d="m17.682.073.019.043.01.005.048-.012.05-.022.032-.004.024.004.062.027.021-.009.056-.003.056.01.077.036.045.014.023.015.016.02.027.074.016.015.038.014.044.006.06.06.014.006.05.002.013-.006.038-.042.082-.034.01-.013.027-.07.018-.02.03.001.048.027h.04l.014-.005.023-.025.017-.008.075-.014.014.003.007.05.018.035.027.051.03.027.01.044.027.026.025.048.006.03-.006.086.005.044-.017.038-.002.031.003.012.035.049.003.06.006.021.025.047.033.034.075.019.045.034.003.01.001.05-.058.017-.014.01-.005.012-.008.055.004.052.01.067.018.06-.006.05-.015.037-.007.005h-.012l-.065-.013-.045-.023-.007.001-.004.009V1.4l.006.01.013.011.039.01.008.011.004.028-.027.035-.003.01.009.013.022.013.011.013.011.024.005.04.011.01.028.008.008-.003.056-.047.018-.035.033-.007.11.034.007.016-.005.028.008.013.052-.01.053.018.017-.013.031-.008.02-.023-.001-.022-.015-.043.013-.044.018-.025.097.012.094.02.026.02.002.025.027.014-.003.023.053.029.005-.002.012-.018.005-.045-.024-.025-.058-.03.01-.037.022-.035-.018-.03-.035-.025-.013-.028.003-.006.017-.003h.054l.03.007.063.047.015.044-.005.034.035.021-.018.053.007.008.066.041.071.02.002.034-.045-.01-.012.015-.037.002-.004.02.014.02v.014l.027.021.001.006-.031.103.038.04.038.013.01-.005.03-.07.015-.022.125.049-.008-.052-.034-.066-.036-.007-.032.002-.014.01-.026-.005.018-.076.033-.016.01-.014.134.011.025.004.02.018.103.01-.002.054.048.008.02.062.011.007.087.018.059.019.007.008.083-.003.006-.009-.005-.024.006-.008.023.008.03.025.034.016.006-.003.002-.01-.02-.043V1.76l.058-.018.032-.026.007-.016-.01-.02.004-.003.044.004.002.014.041.007-.02.126-.024.107-.168-.025-.025.045.018.038-.025.012-.055.01.009.036-.023.094-.053.008.001.038.016.003.001.004-.027.085.08.028.007.014.028.008v.02l-.016.045.013.015.04.022.04.083.06.094-.028.028-.063-.03-.017.113.018.107.107-.09.003-.026.042-.015.012.028.039-.025.035.052-.038.02.002.026-.043.02.005.042-.043.062-.028.068-.045.035.018.018.083-.056.024.05-.052.06.018.094.101-.001.045-.117.034.01.074-.024.042.109-.038.02.007.061-.047.019.01.113-.037.015-.032-.065-.054-.008-.035-.046-.015.044.038.097.14.01.003.046-.288-.02-.054-.099-.055.003-.01-.048-.1.003-.144-.07-.095.04-.021-.213-.032-.034v-.087l-.016-.038-.025.002-.024.033h-.08l-.07.034-.032-.029-.144.03-.035.089-.177.012-.217-.026-.01-.046-.037-.04v-.04l.047-.02-.023-.063.024-.084.03-.043-.155-.162.005-.045-.076-.002-.025.048-.047.007-.018.023-.02.004-.028.028-.066-.001-.008-.022-.121-.02.011-.07h-.01l.003-.036-.315.008-.018.1-.068.01.014.087-.072.009-.012-.057-.076-.092-.003-.02-.026-.002-.012.019-.146.003.022-.018-.003-.036.032-.002-.009-.032.033-.017-.007-.067-.053.021-.093-.022-.017.024-.025-.012.018-.04-.008-.122-.041-.014-.008-.056-.162-.003-.028.029-.036.002-.018.034-.041-.008-.014.06-.032.003.013.056.041.009-.024.054-.051-.014-.002-.056-.014-.042-.03-.008-.01-.03-.046-.01-.003-.05-.073-.006.002.061-.105.008-.003-.036-.074-.006-.006.03-.058-.004.025.037-.006.02.02.022-.017.02-.11-.004.002.061.037-.002-.023.044-.02-.022-.038.028-.002.03-.021.008-.032.003-.022.034.054.074.003.041.041.013.024.047.083.006-.01.085.052.004.013.041-.003.05-.026.008.044.058-.115.102.035.118-.04-.009.063.07-.064.03-.02-.006-.034.032-.025-.002-.013.044-.031.003-.053.03-.015.07-.02.003-.02.058-.081-.01-.032.017-.03.062-.108-.002.017.08.045.018.009.035-.094.098-.03-.022-.022.038.02.026-.044.04-.02-.01-.08-.07-.106-.04-.043-.053-.166.004.008.247-.157-.054-.048.026-.083-.01-.075-.039h-.24l-.005-.113-.142.02-.111.048-.064-.127-.12-.007.01-.377.079-.02-.005-.135.016.001-.006-.11-.037-.003-.027-.117.033-.038.079.005.048-.037.11.022.018-.08-.112-.067-.008-.319-.126-.013-.032-.094.033-.043.06-.057v-.194l-.096.02-.078-.24.195-.099.067-.006.022-.02-.041-.103-.052-.005-.141-.085.143-.049-.085-.224.022-.029-.016-.022-.039-.14.184-.067.232-.055.059.01.034-.043.012-.007.115-.016.072.006.03-.031.054-.006.089-.02.008-.01.008-.038.009-.01.016.002.033.018.079-.002.05.017.02-.006.015-.011h.028l.093-.038.012-.022.01-.052.012-.016.025-.02.02-.007.03.002.085.04.057-.014.076-.004.011-.011-.008-.026.01-.043.02-.03.031-.028-.021-.018L17 .418 16.97.382 16.963.37l.006-.028-.02-.03.001-.006h.057l.028-.012.01.002.028.022.01-.003.011-.016.013-.004.07.008.072-.015.016.015.013.001.012-.021.01-.056.007-.012.021-.01.014-.014.006-.028.012-.017-.002-.031.017-.019.013-.004.036.007.119.076.016.005.008-.007.006-.017-.01-.043-.022-.022-.012-.003-.018.009-.007-.005L17.5.04l.007-.024.018-.016h.028l.052.016.062.037.015.02ZM25.422 4.792l.014.023.052.116.116.222.007.023.093.18.014.038.006-.014.01.026.05.085.031.066-.01-.071.003-.033h.012l.005.02h.075l-.001-.064.007-.02.028-.003.01-.02.053-.002.002-.008.01-.002h.028l.04-.042h.029l-.003-.022.01-.043v-.056l-.003-.023-.029-.03.004-.09.024-.004.111.004.007-.018v-.05l.011-.03.019-.018.084.024.027.01.022.017.04.008-.005.014.01.01.067.024.038.028.018-.012.02-.029.016.006.015.022v.043l-.015.072-.035.053-.005.038-.01.027.003.041.072.003.123-.045h.05l.004.016h.006l.003.007.001.029.012.005.007.03-.016.022.01.018.017.003.021.055.002.014-.022.043v.023l.021.005.105.004.107-.02.005-.003.003-.045.005-.003.01.006v.018l.05-.028.094.012.015.007.06.05.04.012.041-.004.015-.008.022-.027.011-.003.035.004.035-.006.031.008h.031l.044.016.024.001.014-.004.075-.046.032-.032.008-.016v-.055l.012-.049.03-.008.066.026.043.01.04.003.02-.012.012-.02.055-.051.008-.02-.005-.027.01-.006.02.003.008.008.014.004.01.024.005.004.006-.002.009.014.034-.025.043-.004.066.015.02-.015-.014.02.005.012.055.023.027-.003.04.009.043.02.053.043.056.006.02.007.015.01.099.107.011.069.008.013.049.05.022.043h.006l.035.03.039.053.034.031.01.02.005.015-.02.034-.001.02.035.106-.001.017-.016.033v.013l.02.036.047.05.009.006.055-.003.037-.03.013-.001.061.053.024.011.056.011.02.013.031.03.015.007.044.004.011.015.004.027h.054l.018.006.05.039.02.032.007.027-.01.01-.017-.01-.008.008.003.016-.01.025.002.042.011.021.015.01.066.02.01.024v.025l.059.102.006.022.002.027-.01.042.003.014.01.017.032.013.018.028.035-.003.02.013.009.015.025-.008.017.012.014-.012.01-.019.029-.011.044-.002.047.015.027.031.018.005.058-.015.025.006.03.019.07-.007.008.002.009.01-.01.041.004.01.033.012.04-.03.021-.005.033.001.04.06.007.001.026-.022-.008-.035.031-.04-.002-.03.005-.007.09-.03.05-.03.044-.06.042-.027.015-.024.017-.003.018-.016.01-.019-.01-.019.003-.014h.142l.002.01-.029.056v.018l.012.018-.022.018-.041.022-.023-.007-.035.043-.001.03.01.036.018.016.039-.006.069.031.001.005-.014.014.029.023-.012.037.004.025.07.039.007.045-.01.013-.001.011.022.025.008.027.018.008.026-.002.027.045.113.01.059.034.01.014.023.095v.018l-.012-.002-.02-.015-.036.001-.022-.022-.043-.018-.123.055h-.034l-.028-.015h-.01l-.02.02-.012.05-.057.034-.017.02-.005.01-.002.031.01.052.057.07v.024l-.038.028-.006.008-.004.023.017.03-.004.033-.046.05-.012.032-.01.008-.029.007-.009.033-.014.016-.01.04L30.63 8l-.081.046-.033-.017-.017.008-.036.002-.032.04-.045.03h-.037l-.112-.015-.036.02-.038-.009-.03.012-.026.003-.081.064-.022.039-.003.04-.04.098-.025.046-.003.037.004.042-.015.036-.003.024-.03.057-.004.036.038.202.02.15-.012.093.027.069.044.06.006.023-.012.053.009.032-.005.067-.004.013-.01.007-.06.005-.015.017-.01.057-.023.046-.002.034-.063-.005-.046.012-.022-.008-.023.015-.024-.017-.05.01-.025.048-.074.05-.016.027-.02.01h-.03l-.02.01-.01.044-.033.018h-.035l-.048.03-.006-.002-.01-.012-.06.005-.007-.006.003-.005.028-.015.015-.033.022-.018-.01-.01-.002-.016-.02-.009-.006-.026-.023-.03-.014-.01h-.016l-.023.01-.052-.001-.042.02-.034-.01-.012-.02-.012-.004-.042.013-.027-.007-.09.005-.025.005-.04.018-.052.013h-.015l-.046-.032h-.05l-.043-.02-.068-.016h-.044l-.09-.03-.019-.01-.027-.029-.046-.037-.036.01-.043-.055-.08-.004-.052-.048-.073-.001-.017.003-.016.01-.028.164-.014.031-.03.014-.014.078-.02.064-.061.132-.013.045-.019.12-.031.108-.108.212-.02.051-.023.083-.012.172-.023.052-.04.068-.027.08-.056.12-.014.039-.013.063.002.023-.077.026-.027-.023-.01-.058.023-.155-.12-.126-.059-.212-.247-.278.026-.034-.032.007-.01-.011.037-.027.014-.036h-.018l-.024.043-.026-.019h-.026l-.025-.006.028-.042h-.022l-.034.045-.024-.027-.022-.053-.041.027h-.036l-.042-.06-.232-.006-.216-.116-.256-.108.003-.073-.16-.064-.354.12-.234-.316-.332.036-.037-.09-.094-.008-.037-.042-.09-.056-.125-.101-.12.147-.096-.096-.11.117-.192-.04-.02.035-.075.032-.088-.041-.046.028-.036.095-.111-.04-.073-.051-.038-.064-.067-.033.059-.021.031-.075-.003-.08.07-.01.068.028-.008-.055-.04-.162-.016-.007-.015-.043.045-.095.036-.15h.037l.007-.087h.051l-.044-.062.139-.049-.053-.04-.076.005-.096-.084.02-.055.066-.003.016-.038-.035-.01-.117.003-.01-.047-.065-.029-.028-.055.06-.017-.009-.056.039-.034.038-.003.057.019.137-.136V7.88l.031-.118-.03-.088-.306.048-.053-.1.018-.071-.007-.042.062-.031.015.02.072-.028-.072-.073-.06-.033-.003-.07-.112-.088-.063-.02.002-.037-.06-.066.012-.063.176-.081.194-.069.067-.1.015-.058-.02-.05.018-.067-.023-.033.02-.085.069-.002.033-.022.105-.046.059-.079.11-.087.017-.063.05-.028.043.074.321.128.12.03.104-.046.128-.224.051-.05-.021-.146-.071-.02.027-.25-.154-.099-.05-.024-.061-.046-.035-.05-.056-.017-.02-.114-.09-.124.064-.06.017.014.08-.041.01-.042.046-.02.016.038.095-.028.153-.094.039.013-.007-.054.011-.046-.038.006-.004-.068.15-.021.02.023.097-.09-.02-.063.114-.028.02-.112.056-.006.149.3ZM16.278 10.709l1.412.021.135.212.066.21.103.25.092.383.043.058.057.302.067.437-.028.018-.014.085-.051.078-.013.114-.093.224.002.02-.101.138.078.027-.02.031.032.096.04-.017h.017l-.008.037.051-.008.08.055.023-.054.017.001.014.058.067.006.019.026.026-.01.019.022-.014.043.038.035.028-.017.019.014-.027.045.023.018.025.01-.02.019.026.034-.01.08.002.048.015.017-.019.046.079.047.055-.003.008.032.044.016.004.032.025.006.009.024.021.03.041.007.05.085.06-.015.014.023-.014.037.032.001v.022l.043.037-.01.018v.024l.006.017-.003.013.01.008.037-.003-.03.036-.044.027h-.012l-.02-.016-.025.022-.014.022-.05.053-.002.02-.035.084-.02.003-.019-.017-.012-.003v-.035l-.01-.014-.04-.021-.044-.037h-.017l-.006.007-.008.038-.02.024-.031.023.006.056-.04.025-.028.008-.031.034-.028.059-.073.04-.017.037h-.011l-.009-.023-.017.002-.03.066-.048.018-.019-.015-.02-.006-.027.017-.05.005-.028.023-.053.014-.06.057-.019.037-.043.013-.027.022-.012.02.007.013.019.012-.006.016-.006.003-.036-.006-.043.01-.032-.012-.048.006-.019.01-.017.037-.036.02-.018.044-.011.007-.022-.012-.009.003-.032.047-.003.042-.026.024-.005.028h-.017l-.01.007-.034.034-.07.099-.012.026-.005.028-.022.019-.03.01-.023.02-.008-.026.029-.018-.021-.01-.013.006-.011-.004-.008-.024-.038.023-.005-.009-.08-.005v.02l.06.004.013.021-.014.014.016.04-.014.114.053.07.018.051.04.02.013.033-.07.026-.038-.002-.013.017-.079-.022.009-.018-.03-.024-.031.008-.066-.055-.061-.02-.058-.062-.093-.053-.04-.01-.023-.031.012-.036.066-.002-.002-.08.024-.023-.022-.054.022-.023.04-.008-.012-.007-.01.004-.022-.02-.05.03-.013-.018-.024.02-.053-.047-.033-.039-.014-.003-.023-.02-.248-.008-.04.01-.015-.002-.014-.009-.525-.037-.056-.614-.389-.045.004-.29.015-.018.001-.101.052.021.002-.014.065.015.3-.3.106.062.21-.203.186-.135.2-.07.247-.12.073-.044.003-.032-.053.013-.029-.066.014-.052-.044.001.008-.044-.04.022.011.062-.031.019-.023-.095.076-.02.015-.081-.006-.033.071-.07v-.155l.073.061.032-.015.009-.106-.022-.054-.016-.022.038-.039.046-.018.029.023.052-.05-.205-.14-.085-.1-.002-.034-.086-.046-.045.014-.08-.075.01-.062.014-.02-.005-.703-.118-.049-.142-.113.047-.167.008-.106.023-.075.045-.062.021-.045-.022-.07-.118-.087.01-.085ZM4.072 4.506l.087.002.012-.008.029.02.042-.009.005.005.018-.003.004.005.015-.001v-.008l.069-.013.018.014.003.016.047.011.006.046-.002.042-.009.012-.064.004-.014.002-.004.006.003.016.017.01.006.011v.027l.028.011.056-.002.03.011.067-.032.019-.026V4.65l.016-.006.015.031.021-.004.01.004.013.022-.02.04.007.011.016.002.046-.023.022-.02.037-.014.003-.005-.027-.064-.001-.014.014-.032.06-.074.07.004.058.032.028-.009.031.004.025-.014.015-.02.01-.039.025-.004.04.007.031-.022-.001-.026.02-.008.019.007.006.007.015.111.044.056.02.047.027.023.007.044.03.02v.01l-.006.006.003.015.015.005.001-.005.023-.012-.001.02.024.002-.008-.017.007-.003.01.009.005-.002.002-.028h.007l.008.029.014.008-.006-.023.036-.01.013.003-.003-.025.017.01v-.02l.006-.011.006.008-.002.011.008-.005.006.01.01-.006.002.013.019-.008.02.01.02-.007v.007l-.022.012.004.013h.006l.01-.01.01.006.005-.023h.012l-.002.015.01.008.011.021.006-.004-.005-.015.02.008-.002-.018.02.01.038-.016.014-.012h.008l.007.009.014.005.034-.003v-.011l-.014-.016.003-.012.02.005.014-.017.006.004-.009.017.005.006.016.005.025-.005.01.005.012.024h.01l.008-.018.019-.01.024-.007.011.004.014.02.02.005.017.015v.016l.034.016.004.013.026.01.034.003.004.017.016.017.022.011.004.014-.006.007-.022.003.02.025-.004.023-.01.005-.002.017.005.016.03.026.006.018-.003.015.014.016.016-.005.032.016.006.015.01-.007.016.002.018-.006.022.023.009.002.026-.005.008-.007.051.024.01.011.04.01.015.013-.003.012.008.006.045.014.015.014.01.025-.01.027.001.014h.004l.006-.013.006-.003.02.03.002.01-.013.004-.007.009.013.01-.001.016.019.007-.004.02.027.02.027.057.017.023.014.007.095.007.052.027.002.02-.036.058-.011.048.009.04-.029.055-.002.032.063.094.023-.001.02-.012.012.016-.095.108.013.032-.08.08.057.075-.014.078.003.095.035.01.002.028.05.023.01.056-.033.065.002.033-.071.121.043.051h-.082l-.016.04-.052.062.018.03-.074.042-.064-.01-.092.001-.013.054h-.073l-.058.049-.03.074-.046-.022.026.058-.05.16.007.103-.024.036-.145.117.02.044-.115.035h-.26l-.046-.022-.044.1-.066-.028.011.263-.09.004-.052.21.017.053-.053.03-.08.003-.164-.09-.032.005-.027.045-.239-.053.006-.088.025-.017-.02-.04-.315-.052-.089.04-.154.01-.042.124-.069.041-.03-.015-.07.064-.047.001-.41.264-.151.149-.126-.003-.04.032-.233-.012.006.11-.365-.138-.207-.056-.658-.07-.38-.058-.087.005-.113-.036-.067-.076.004-.012-.005-.004h-.037l-.052-.01-.095-.044-.117-.043-.022-.016.081-.22.051-.113.037-.106.044-.096.12-.07.048-.062.026-.064.01-.05-.005-.025-.017-.023-.117-.1-.061-.035-.002-.015.016-.094.013-.137.03-.056.01-.079v-.073l.015-.103.01-.024.009-.009h.04l.102-.038.04-.025.046-.045.03-.045.05-.096.005-.013-.01-.03-.048-.074.049-.048-.003-.014-.015-.006v-.057l.013-.023.057-.004.008-.005.001-.042.014-.009.012-.034.049-.045.031-.007.054.027.029.035.061.031-.007.013.025.03.007.007.029.004.002.018.023.03.04.037.031.04.01.03.02.016.003.031.027.023.012.02.032.01.008.012.025.108.014.013.002.019.009.013.02.014.02.034.006.026-.005.015.009.006.032.006.016-.01.013.003.01.019.01.004.007.02.021-.009.013.012v.013l.023.009.006-.006v-.029l.225-.098.095-.09.011-.017-.017-.047-.002-.022-.047-.009-.02-.01-.005-.009.002-.02.008-.01.006-.024.002-.023-.01-.029-.037-.055-.012-.038-.01-.097-.038-.186.011-.034-.011-.029-.049-.025-.008-.016V5.68l.014-.017.016-.005.025.006.05.044.058.005.025.02.01.001.032-.036.053-.03.033-.046.082-.094.037-.02.064-.014.033-.027.045-.004.058-.02.007-.021-.007-.021-.031-.07-.013-.02-.02-.016-.002-.009.041-.066-.005-.046.01-.01.023-.005.004-.023.028.007.034.018.015-.001.052-.018.075.014.03-.003.077-.065.022-.028.05-.043.164-.06.048-.008.11-.052.004-.005-.014-.01-.015-.035.029-.028-.001-.012-.016-.016.082-.007.003-.041h.035l.002-.017-.017-.039.007-.057.01-.032.011-.003.008.008.006-.005.015-.047h.042l.017.009.052.007v.022l-.036.034-.002.01.067-.008.006-.012.01-.004.012-.08-.027-.014-.014-.016-.005-.044.009-.045.02-.002.069.031.02.068Z"/>
      <path d="m21.425 10.71-.06.126-.071.115.032.376.04.103-.225-.016.014.188.209.005.006.123.03.034.014.043.24.162.07.118-.033.12.024.037.142.13.167.018.013.002.071.063.046.006.043.055.077.05.004.124-.017.042-.033.037.017.07-.018.047-.028.013-.163.149v.063l.126.042.026-.016.042.005-.011.034.111-.013.027.043-.099.116-.008.083.028.016-.01.042.029.013.017.07.072.014.14.064-.019.039-.043.012.008.016.073-.008.041.025.039-.016.008.035h.005l-.018.03-.014.062-.009.015-.031.023-.077-.023-.091-.004-.03.005-.017-.002-.079-.033-.035.005-.032.013-.022-.004-.007-.007-.027-.001-.021-.028-.033-.014-.004-.01-.034-.015-.021-.02-.03-.004-.023-.016-.007.003-.003-.017-.007-.008-.055-.023-.015.011h-.057l-.025-.033-.01-.03-.02-.018-.03-.015-.01-.028-.016-.007-.031-.027-.012.003-.015-.009-.007.004-.014-.025-.036-.003-.011-.012-.012.006-.015-.008-.033-.003-.006-.008-.02-.003-.01-.021-.074.005-.018-.005-.01.006.015.032-.002.008-.012.006h-.013l-.03.017-.036.009-.037-.01-.015-.018-.021-.005-.036.057-.011.035-.053-.014-.03.003-.105.053-.05.02-.01.01-.003.007.007.013-.002.012-.015.03-.02.025-.01.026.003.12-.032.058-.028.095-.002.054.013.058.056.07-.002.02-.015.008-.012.001-.017-.012-.079-.007-.027-.021v-.046l-.009-.009-.043-.002-.1-.026-.052.005-.022-.005-.023.007-.018-.006-.03-.001-.023-.017-.03-.005-.02-.01-.051-.069-.058-.017-.045-.024-.014-.002-.028.007-.038-.008-.162-.072-.037-.001-.03.01-.019-.005-.016.015-.018.003-.023-.008-.024-.024-.054-.014-.023-.014-.011-.015-.056-.018-.034.001-.043.023-.063.017-.036.024-.042-.01-.01-.013-.03-.02h-.013l-.023.01-.059.002-.018.02-.066-.004-.006.008v.017l-.031.06-.04.02.002.037-.009.024-.092.01-.023.02-.002.01.014.02.049.034v.018l-.011.025-.014.004-.016-.005-.031-.025-.013.01-.016.024-.004.032-.012.031-.015.022-.011.006-.011.025-.042-.037v-.022l-.033-.002.014-.036-.014-.023-.06.015-.05-.085-.04-.008-.022-.029-.01-.024-.024-.006-.004-.032-.044-.016-.008-.032-.055.003-.079-.047.019-.046-.015-.017-.002-.048.01-.08-.025-.034.019-.018-.024-.01-.024-.019.027-.045-.02-.014-.027.017-.038-.035.014-.043-.019-.022-.026.01-.019-.026-.067-.006-.014-.058-.017-.001-.024.054-.079-.055-.051.008.008-.036-.017-.001-.04.017-.032-.096.02-.03-.078-.028.1-.138-.001-.02.093-.225.013-.113.052-.078.013-.085.028-.018-.067-.437-.058-.302-.042-.058-.092-.383-.103-.25-.066-.21-.135-.212 1.057-.002.598-.015.132.01.714-.026 1.234.014ZM11.45 9.894l-.012.051v.06l-.004.062.074.087.102-.004.115.02.04-.033.03.005.002.061-.012.122-.047.077-.073.042-.07.025-.053.046-.079.014-.07.062-.011.045-.027.035-.059.011-.046.013-.01.036-.015.02-.01.057-.01.048-.04.025.004.032.002.04.037.038.015.059.013.048-.004.06-.028.062-.009.037.035.025.018.06.002.135-.02.042v.043l.02.062.033.027.015.047.046.003.03.035.03.098.018.077-.01.072-.027.072-.022.011-.018.017-.02.015-.274-.19h-.001l-.64-.444-.002-.028-.012-.031-.023-.022-.028-.017-.009-.028-.006-.03-.023-.045.02-.023.003-.037-.007-.057.008-.034-.015-.028h-.035l-.024-.008-.014-.016-.026-.013-.014.017-.012.027-.027.018-.02.012-.032-.002-.02-.01h-.025l-.008.017v.035l-.016.01-.004.037-.185-.128-.068.025.001-.03.025-.04.033-.016.004-.07.03-.08.036-.074.033-.044.036-.023.078-.016.063-.032h.001v.003l.014.002.02.016.046.007.047-.003.016-.014.024-.025.033-.018.036.018.032.022-.014.03-.032.034-.022.032-.021.031-.009.04-.002.035.006.027h.04l.041-.015.042-.003.033.012.028-.022.016-.04.015-.049.026.014.025-.012.02-.034.01-.05-.008-.068-.008-.029-.002-.03.014-.048-.02-.042-.055-.088-.026-.037-.002-.04.024-.005.073-.002.052.002.046.008.03.035-.003.056.006.045.015.025-.005.041-.009.028.024.014.052-.004.03-.028.039-.031.033-.019.059.007.078.015.04.008.04.022.043.045.047.015.1-.018h.041l.036-.024.044-.025.016-.053.001-.073-.023-.042-.036-.053-.005-.032-.002-.034-.033.007-.028.034-.058.038-.045-.015-.033-.025-.021-.039h-.043l-.05.007-.043.012-.035.016h-.041l-.053-.021-.017-.025-.026-.056-.022-.026.004-.074.031-.04.17-.108h.05l.037.035.02.04-.005.098.01.034.028-.018v-.114l.058.015.05.024.04-.02.029-.031.029-.016v-.046l-.05-.035-.036-.004-.041-.02.004-.035.065-.004h.037l.037.031.056.016Zm-.596 1.175.037-.023.037-.015.032-.018h.198l-.01-.018-.077-.002-.072-.013-.018-.038-.095-.01-.064.005-.06.003-.064.015-.003.053-.002.077h.08l.081-.016Z"/>
  </symbol>
  <symbol id="icon-social" viewBox="0 0 20 22" xmlns="http://www.w3.org/2000/svg">
    <path d="M12.2977 0.434904C13.0301 0.605842 13.6748 0.978083 14.189 1.52685C14.7103 2.08316 15.0136 2.67256 15.34 3.82473L16.1309 6.76912C16.2738 7.30258 15.9572 7.85092 15.4238 7.99386C14.8903 8.1368 14.342 7.82022 14.199 7.28676L13.4786 4.59807L13.366 4.19577C13.151 3.46719 12.9894 3.17165 12.7296 2.89437C12.4856 2.63402 12.1906 2.46365 11.8431 2.38255C11.4731 2.29618 11.1363 2.30404 10.3979 2.48216L9.99318 2.58576L4.86571 3.95967C4.01172 4.18849 3.61196 4.35428 3.35689 4.54286L3.29595 4.59053L3.16201 4.70865C2.90166 4.95261 2.73129 5.24769 2.65019 5.59514C2.55662 5.99602 2.57364 6.35779 2.79792 7.23359L5.5214 17.4022L5.63404 17.8045C5.84901 18.5331 6.01056 18.8286 6.27038 19.1059C6.51434 19.3662 6.80943 19.5366 7.15688 19.6177C7.55809 19.7113 7.90219 19.694 8.76422 19.4775C9.29986 19.343 9.84315 19.6682 9.97769 20.2038C10.1122 20.7395 9.78705 21.2828 9.2514 21.4173C8.10257 21.7058 7.44564 21.7388 6.70228 21.5653C5.96992 21.3944 5.32518 21.0222 4.81097 20.4734C4.28969 19.9171 3.9864 19.3277 3.65994 18.1755L0.921552 7.96272C0.566921 6.63921 0.51688 5.93598 0.702543 5.14054C0.854488 4.48956 1.16549 3.9078 1.63267 3.41217L1.81518 3.23038L1.99402 3.07265C2.48972 2.66101 3.07127 2.38829 4.08534 2.10024L4.34807 2.02781L9.47554 0.653913C10.799 0.299282 11.5023 0.249241 12.2977 0.434904ZM16.3684 10.0001C18.3686 10.0001 20 11.5916 20 13.5674C20 15.4764 19.2284 16.4184 16.2201 18.701L14.8923 19.7085C14.3648 20.1088 13.6352 20.1088 13.1077 19.7085L11.7799 18.701C8.77162 16.4184 7.99999 15.4764 7.99999 13.5674C7.99999 11.5916 9.63137 10.0001 11.6316 10.0001C12.4608 10.0001 13.2275 10.2238 13.914 10.6598L14 10.7171L14.086 10.6598C14.7039 10.2674 15.3867 10.047 16.1215 10.0068L16.3684 10.0001Z"/>
  </symbol>
  <symbol id="icon-sport" viewBox="0 0 20 20" xmlns="http://www.w3.org/2000/svg">
    <path fill-rule="evenodd" clip-rule="evenodd" d="M2.99962 2.99974C4.79018 1.20918 7.26641 0.100098 9.99998 0.100098C12.7335 0.100098 15.2098 1.20918 17.0003 2.99974C18.7909 4.7903 19.9 7.26654 19.9 10.0001C19.9 12.7337 18.7909 15.2099 17.0003 17.0005C15.2098 18.791 12.7335 19.9001 9.99998 19.9001C7.26641 19.9001 4.79018 18.791 2.99962 17.0005C1.20906 15.2099 0.0999756 12.7337 0.0999756 10.0001C0.0999756 7.26654 1.20906 4.7903 2.99962 2.99974ZM10.8997 18.0001C10.8997 15.8666 10.149 13.9084 8.89732 12.3753L10.4997 10.7729L15.5894 15.8626C14.339 17.0552 12.7095 17.8509 10.8996 18.0508L10.8997 18.0001ZM9.09974 18.0001C9.09974 16.3639 8.54627 14.857 7.61634 13.6563L4.94389 16.3287C6.10947 17.2614 7.5373 17.878 9.09957 18.0507L9.09974 18.0001ZM1.99974 10.9001C3.63595 10.9001 5.14288 11.4536 6.34354 12.3835L3.67112 15.0559C2.73856 13.8903 2.12196 12.4625 1.94938 10.9003L1.99974 10.9001ZM10.4997 8.22731L12.1022 6.62489C11.0289 5.31041 10.324 3.68343 10.1448 1.90136C10.0966 1.90052 10.0484 1.9001 9.99998 1.9001C8.34389 1.9001 6.80468 2.39644 5.5218 3.24937L10.4997 8.22731ZM15.0558 3.67124L13.3831 5.3439C12.6751 4.42968 12.1852 3.33788 11.9918 2.14666C13.1277 2.43373 14.1678 2.9608 15.0558 3.67124ZM17.8534 8.00803C16.6621 7.81464 15.5702 7.32481 14.6559 6.61669L16.3286 4.94401C17.0391 5.83198 17.5662 6.87216 17.8534 8.00803ZM11.7725 9.5001L13.375 7.89768C14.6895 8.97094 16.3166 9.67587 18.0987 9.85505C18.0996 9.9033 18.1 9.95165 18.1 10.0001C18.1 11.6562 17.6036 13.1954 16.7507 14.4783L11.7725 9.5001ZM7.62453 11.1025L9.22695 9.5001L4.13751 4.41066C2.94496 5.66101 2.1492 7.29043 1.94934 9.10024L1.99974 9.1001C4.13326 9.1001 6.09144 9.85082 7.62453 11.1025Z"/>
  </symbol>
  <symbol id="icon-bank" viewBox="0 0 18 18" xmlns="http://www.w3.org/2000/svg">
    <path fill-rule="evenodd" clip-rule="evenodd" d="M8.72815 1.83583C8.91107 1.78797 9.10323 1.78806 9.2861 1.83609C9.45205 1.87968 9.63216 1.99425 10.3822 2.55445L16.5552 7.16477C16.9534 7.46221 17.5174 7.38048 17.8148 6.98224C18.1122 6.58399 18.0305 6.02004 17.6323 5.7226L11.4593 1.11228L11.3445 1.0264C10.7737 0.598868 10.2942 0.239842 9.7434 0.0951516C9.26129 -0.0314862 8.75469 -0.0317205 8.27246 0.0944709C7.7215 0.238652 7.24174 0.597235 6.67045 1.02424L6.55559 1.11001L0.368343 5.7221C-0.0301763 6.01917 -0.112422 6.58305 0.184642 6.98157C0.481706 7.38009 1.04559 7.46234 1.44411 7.16527L7.63135 2.55318C8.38195 1.99367 8.56216 1.87927 8.72815 1.83583ZM9.89997 7.89059C9.89997 7.39353 9.49703 6.99059 8.99998 6.99059C8.50292 6.99059 8.09998 7.39353 8.09998 7.89059V16.1004H5.89998V7.89291C5.89998 7.39585 5.49703 6.99291 4.99998 6.99291C4.50292 6.99291 4.09998 7.39585 4.09998 7.89291V16.1004H0.902319C0.405263 16.1004 0.00231934 16.5033 0.00231934 17.0004C0.00231934 17.4974 0.405263 17.9004 0.902319 17.9004H17.0976C17.5947 17.9004 17.9976 17.4974 17.9976 17.0004C17.9976 16.5033 17.5947 16.1004 17.0976 16.1004H13.9V7.89291C13.9 7.39585 13.497 6.99291 13 6.99291C12.5029 6.99291 12.1 7.39585 12.1 7.89291V16.1004H9.89997V7.89059Z"/>
  </symbol>
  <symbol id="icon-construction" viewBox="0 0 16 21" xmlns="http://www.w3.org/2000/svg">
    <path fill-rule="evenodd" clip-rule="evenodd" d="M8.89997 1.0001C8.89997 0.503041 8.49703 0.100098 7.99997 0.100098C7.50291 0.100098 7.09997 0.503041 7.09997 1.0001V1.17476C4.8052 1.55975 3.0012 3.39206 2.65869 5.70096L2.58935 5.68983C2.45071 5.66735 2.34503 5.64879 2.27522 5.6361C2.24032 5.62975 2.2144 5.62488 2.19782 5.62171L2.18 5.61827L2.17647 5.61758C1.68922 5.52037 1.2149 5.83634 1.11745 6.32359C1.01997 6.811 1.33606 7.28514 1.82346 7.38262L1.82485 7.3829L1.82716 7.38335L1.8345 7.3848L1.85998 7.38972C1.88173 7.39387 1.91294 7.39974 1.95323 7.40706C2.03382 7.42172 2.15079 7.44222 2.30122 7.46662C2.56027 7.50863 2.91878 7.5622 3.3617 7.61725C3.35393 7.72718 3.34998 7.83817 3.34998 7.95009C3.34998 10.519 5.43104 12.6001 7.99998 12.6001C10.5689 12.6001 12.65 10.519 12.65 7.95009C12.65 7.83817 12.646 7.72718 12.6383 7.61725C13.0812 7.5622 13.4397 7.50863 13.6987 7.46662C13.8491 7.44222 13.9661 7.42172 14.0467 7.40706C14.087 7.39974 14.1182 7.39387 14.14 7.38972L14.1654 7.3848L14.1728 7.38335L14.1751 7.3829L14.1762 7.38267C14.6636 7.28519 14.98 6.811 14.8825 6.32359C14.785 5.83626 14.311 5.52018 13.8237 5.61753L13.8199 5.61827L13.8021 5.62171C13.7855 5.62488 13.7596 5.62975 13.7247 5.6361C13.6549 5.64879 13.5492 5.66735 13.4106 5.68983L13.3412 5.70096C12.9987 3.39206 11.1947 1.55975 8.89997 1.17476V1.0001ZM7.10007 3.01349C7.10723 3.50437 7.50738 3.9001 7.99997 3.9001C8.49255 3.9001 8.89271 3.50437 8.89987 3.01349C10.272 3.3666 11.3275 4.50827 11.5545 5.92659C10.5923 6.02097 9.37516 6.1001 7.99997 6.1001C6.62478 6.1001 5.40768 6.02098 4.4454 5.92659C4.67246 4.50827 5.72798 3.3666 7.10007 3.01349ZM5.15416 7.79416C5.15138 7.84578 5.14998 7.89777 5.14998 7.95009C5.14998 9.5249 6.42516 10.8001 7.99998 10.8001C9.57479 10.8001 10.85 9.5249 10.85 7.95009C10.85 7.89777 10.8486 7.84578 10.8458 7.79416C10.0103 7.85625 9.04904 7.9001 7.99997 7.9001C6.9509 7.9001 5.98962 7.85625 5.15416 7.79416ZM1.92766 19.0809C1.88723 19.046 1.88947 18.9616 1.89471 18.7649C1.89704 18.677 1.89998 18.5668 1.89998 18.4287C1.89998 16.5361 4.67817 15.4001 7.99998 15.4001C11.3218 15.4001 14.1 16.5361 14.1 18.4287C14.1 18.5668 14.1029 18.677 14.1052 18.7648C14.1105 18.9616 14.1127 19.046 14.0723 19.0809C14.0419 19.1071 13.9876 19.1054 13.8924 19.1025C13.8561 19.1014 13.8138 19.1001 13.7647 19.1001H2.23527C2.18614 19.1001 2.14389 19.1014 2.10757 19.1025C2.01239 19.1054 1.95801 19.1071 1.92766 19.0809ZM7.99998 13.6001C3.77276 13.6001 0.0999756 15.1019 0.0999756 18.4287C0.0999756 20.1643 0.785513 20.9001 2.23527 20.9001H13.7647C15.2144 20.9001 15.9 20.1643 15.9 18.4287C15.9 15.1019 12.2272 13.6001 7.99998 13.6001Z"/>
  </symbol>
  <symbol id="icon-game" viewBox="0 0 24 17" xmlns="http://www.w3.org/2000/svg">
    <path d="M17.1231 0.199951C20.0274 0.199951 21.9537 2.03503 23.0158 5.07547C23.7255 7.10715 24 9.47279 24 11.8142C24 15.2212 23.1631 16.5714 20.6096 16.5714C19.3559 16.5714 18.4952 15.7779 16.972 13.8119C15.7533 12.239 15.2902 11.75 15.1308 11.75H8.86923C8.67378 11.75 8.03443 12.3659 6.83533 13.8148L6.81902 13.8345C5.03705 15.9877 4.43474 16.5714 3.39038 16.5714C0.836887 16.5714 0 15.2212 0 11.8142C0 9.47279 0.274526 7.10715 0.984243 5.07547C2.04635 2.03503 3.97265 0.199951 6.87692 0.199951H17.1231ZM17.1231 1.99995H6.87692C3.26947 1.99995 1.8 6.20654 1.8 11.8142C1.8 14.3537 2.05888 14.7714 3.39038 14.7714C3.58155 14.7714 4.21608 14.1565 5.43231 12.6869L5.44864 12.6671C7.19929 10.5518 7.82403 9.94995 8.86923 9.94995H15.1308C16.1958 9.94995 16.5317 10.3046 18.3949 12.7094C19.5176 14.1586 20.1823 14.7714 20.6096 14.7714C21.9411 14.7714 22.2 14.3537 22.2 11.8142C22.2 6.20654 20.7305 1.99995 17.1231 1.99995ZM7.14 3.71424C7.45717 3.71424 7.71429 3.97135 7.71429 4.28852L7.71371 5.42824L8.85429 5.42852C9.17145 5.42852 9.42857 5.68564 9.42857 6.00281V6.56852C9.42857 6.88569 9.17145 7.14281 8.85429 7.14281L7.71371 7.14224L7.71429 8.28281C7.71429 8.59998 7.45717 8.85709 7.14 8.85709H6.57429C6.25712 8.85709 6 8.59998 6 8.28281L5.99971 7.14224L4.86 7.14281C4.54283 7.14281 4.28571 6.88569 4.28571 6.56852V6.00281C4.28571 5.68564 4.54283 5.42852 4.86 5.42852L5.99971 5.42824L6 4.28852C6 3.97135 6.25712 3.71424 6.57429 3.71424H7.14ZM17.4257 7.14281C17.7429 7.14281 18 7.39993 18 7.71709V8.28281C18 8.59998 17.7429 8.85709 17.4257 8.85709H16.86C16.5428 8.85709 16.2857 8.59998 16.2857 8.28281V7.71709C16.2857 7.39993 16.5428 7.14281 16.86 7.14281H17.4257ZM15.7114 5.42852C16.0286 5.42852 16.2857 5.68564 16.2857 6.00281V6.56852C16.2857 6.88569 16.0286 7.14281 15.7114 7.14281H15.1457C14.8285 7.14281 14.5714 6.88569 14.5714 6.56852V6.00281C14.5714 5.68564 14.8285 5.42852 15.1457 5.42852H15.7114ZM19.14 5.42852C19.4572 5.42852 19.7143 5.68564 19.7143 6.00281V6.56852C19.7143 6.88569 19.4572 7.14281 19.14 7.14281H18.5743C18.2571 7.14281 18 6.88569 18 6.56852V6.00281C18 5.68564 18.2571 5.42852 18.5743 5.42852H19.14ZM17.4257 3.71424C17.7429 3.71424 18 3.97135 18 4.28852V4.85424C18 5.17141 17.7429 5.42852 17.4257 5.42852H16.86C16.5428 5.42852 16.2857 5.17141 16.2857 4.85424V4.28852C16.2857 3.97135 16.5428 3.71424 16.86 3.71424H17.4257Z"/>
  </symbol>
  <symbol id="icon-education" viewBox="0 0 20 19" xmlns="http://www.w3.org/2000/svg">
    <path fill-rule="evenodd" clip-rule="evenodd" d="M1.96222 5.89555L8.41711 2.22181C9.39844 1.6633 10.6015 1.6633 11.5828 2.22181L18.0377 5.89555C18.0704 5.91419 18.0795 5.92884 18.0838 5.93669C18.091 5.94949 18.0983 5.97126 18.0983 5.99984C18.0983 6.02842 18.091 6.05019 18.0838 6.063C18.0795 6.07085 18.0704 6.0855 18.0377 6.10414L11.5828 9.77787C10.6015 10.3364 9.39844 10.3364 8.41711 9.77787L1.96222 6.10413C1.92948 6.0855 1.92045 6.07085 1.91607 6.063C1.90893 6.05019 1.90158 6.02842 1.90158 5.99984C1.90158 5.97126 1.90893 5.94949 1.91607 5.93669C1.92045 5.92884 1.92948 5.91419 1.96222 5.89555ZM1.07187 7.66851C-0.221854 6.9322 -0.221852 5.06748 1.07187 4.33117L7.52676 0.657436C9.06009 -0.21524 10.9398 -0.215239 12.4732 0.657437L18.928 4.33117C19.5742 4.69896 19.8977 5.34826 19.8983 5.99786L19.9 5.9999V10.0999C19.9 10.597 19.497 10.9999 19 10.9999C18.5029 10.9999 18.1 10.597 18.1 10.0999V8.1398L12.4731 11.3423C10.9398 12.2149 9.06009 12.2149 7.52676 11.3422L1.07187 7.66851Z"/>
    <path fill-rule="evenodd" clip-rule="evenodd" d="M15.2 8.09988V10.1083C15.2 11.5233 15.1994 12.5304 15.1349 13.319C15.0713 14.0971 14.9502 14.5829 14.7532 14.9696C14.3601 15.7411 13.7329 16.3683 12.9614 16.7614C12.5747 16.9585 12.0889 17.0796 11.3108 17.1431C10.9314 17.1741 10.5015 17.1904 9.99997 17.1989V18.9991C10.5434 18.9902 11.0262 18.9724 11.4573 18.9372C12.3467 18.8645 13.0958 18.7131 13.7786 18.3652C14.8888 17.7996 15.7913 16.897 16.357 15.7868C16.7049 15.104 16.8563 14.355 16.9289 13.4655C17.0001 12.5951 17.0001 11.5145 17 10.148V8.09988H15.2Z"/>
    <path fill-rule="evenodd" clip-rule="evenodd" d="M4.9001 8.09988V10.1099C4.9001 11.5249 4.9008 12.532 4.96523 13.3206C5.0288 14.0987 5.14991 14.5845 5.34697 14.9713C5.74005 15.7427 6.36727 16.3699 7.13874 16.763C7.5255 16.9601 8.01129 17.0812 8.7894 17.1448C9.14325 17.1737 9.54103 17.19 9.99997 17.1989V18.9991C9.49713 18.9897 9.04732 18.9718 8.64282 18.9388C7.7534 18.8661 7.00436 18.7147 6.32156 18.3668C5.2114 17.8012 4.30881 16.8986 3.74316 15.7884C3.39526 15.1056 3.24388 14.3566 3.17121 13.4672C3.10009 12.5967 3.10009 11.5161 3.1001 10.1497V8.09988H4.9001Z"/>
  </symbol>
  <symbol id="icon-auto" viewBox="0 0 22 17" xmlns="http://www.w3.org/2000/svg">
    <path fill-rule="evenodd" clip-rule="evenodd" d="M2.12687 6.78182C2.24743 6.2996 2.73607 6.00642 3.21828 6.12697L3 7.0001C3.21828 6.12697 3.21843 6.12701 3.21828 6.12697L3.22165 6.12779L3.24233 6.13275C3.26185 6.13737 3.29279 6.14457 3.3349 6.15398C3.41912 6.17279 3.54803 6.20045 3.71968 6.23403C4.063 6.3012 4.57716 6.39206 5.24659 6.48335C6.58562 6.66595 8.54481 6.8501 11 6.8501C13.4552 6.8501 15.4144 6.66595 16.7534 6.48335C17.4228 6.39206 17.937 6.3012 18.2803 6.23403C18.452 6.20045 18.5809 6.17279 18.6651 6.15398C18.7072 6.14457 18.7381 6.13737 18.7577 6.13275L18.7784 6.12779L18.7817 6.12697C18.7819 6.12693 18.7816 6.12701 18.7817 6.12697C19.2637 6.00692 19.7526 6.29986 19.8731 6.78182C19.9937 7.26403 19.7005 7.75267 19.2183 7.87323L19 7.0001C19.2183 7.87323 19.2185 7.87318 19.2183 7.87323L19.2134 7.87444L19.2041 7.87671L19.1725 7.88429C19.1456 7.89066 19.1072 7.89957 19.0576 7.91067C18.9582 7.93287 18.8137 7.96381 18.6259 8.00054C18.2505 8.07399 17.7022 8.17063 16.9966 8.26685C15.5856 8.45925 13.5448 8.6501 11 8.6501C8.45516 8.6501 6.41436 8.45925 5.00339 8.26685C4.29783 8.17063 3.74949 8.07399 3.37406 8.00054C3.18634 7.96381 3.04181 7.93287 2.94244 7.91067C2.89276 7.89957 2.85436 7.89066 2.82749 7.88429L2.79587 7.87671L2.7866 7.87444L2.78361 7.8737L2.78252 7.87343C2.78233 7.87338 2.78172 7.87323 3 7.0001L2.78252 7.87343C2.30031 7.75287 2.00632 7.26403 2.12687 6.78182ZM3.21828 6.12697C3.2182 6.12695 3.218 6.1269 3.21828 6.12697V6.12697Z"/>
    <path d="M20 12.5001C20 13.3285 19.3284 14.0001 18.5 14.0001H18V15.2001C18 15.4801 18 15.6201 18.0545 15.7271C18.1024 15.8212 18.1789 15.8977 18.273 15.9456C18.38 16.0001 18.52 16.0001 18.8 16.0001H19.2C19.48 16.0001 19.62 16.0001 19.727 15.9456C19.8211 15.8977 19.8976 15.8212 19.9455 15.7271C20 15.6201 20 15.4801 20 15.2001V12.5001Z"/>
    <path fill-rule="evenodd" clip-rule="evenodd" d="M19.1 15.1001H18.9V14.8669C18.9677 14.8556 19.0344 14.8414 19.1 14.8245V15.1001ZM20.9 12.5001V15.2001C20.9 15.2074 20.9 15.2148 20.9 15.2222C20.9 15.3424 20.9001 15.4807 20.8902 15.6018C20.8788 15.7408 20.8501 15.9342 20.7474 16.1357C20.6132 16.3991 20.399 16.6133 20.1356 16.7475C19.9341 16.8502 19.7407 16.8789 19.6017 16.8903C19.4806 16.9002 19.3423 16.9001 19.2221 16.9001C19.2147 16.9001 19.2073 16.9001 19.2 16.9001H18.8C18.7927 16.9001 18.7853 16.9001 18.7779 16.9001C18.6577 16.9001 18.5194 16.9002 18.3983 16.8903C18.2593 16.8789 18.0659 16.8502 17.8644 16.7475C17.601 16.6133 17.3868 16.3991 17.2526 16.1357C17.1499 15.9342 17.1212 15.7408 17.1098 15.6018C17.0999 15.4807 17.1 15.3424 17.1 15.2222C17.1 15.2148 17.1 15.2074 17.1 15.2001V13.1001H18.5C18.8314 13.1001 19.1 12.8315 19.1 12.5001H20.9Z"/>
    <path d="M2 12.5001C2 13.3285 2.67157 14.0001 3.5 14.0001H4V15.2001C4 15.4801 4 15.6201 3.9455 15.7271C3.89757 15.8212 3.82108 15.8977 3.727 15.9456C3.62004 16.0001 3.48003 16.0001 3.2 16.0001H2.8C2.51997 16.0001 2.37996 16.0001 2.273 15.9456C2.17892 15.8977 2.10243 15.8212 2.0545 15.7271C2 15.6201 2 15.4801 2 15.2001V12.5001Z"/>
    <path fill-rule="evenodd" clip-rule="evenodd" d="M2.9 15.1001H3.1V14.8669C3.03233 14.8556 2.96562 14.8414 2.9 14.8245V15.1001ZM1.1 12.5001V15.2001C1.1 15.2074 1.1 15.2148 1.1 15.2222C1.09996 15.3424 1.09991 15.4807 1.1098 15.6018C1.12116 15.7408 1.14992 15.9342 1.25259 16.1357C1.38681 16.3991 1.60099 16.6133 1.86441 16.7475C2.06591 16.8502 2.25928 16.8789 2.39831 16.8903C2.51935 16.9002 2.65766 16.9001 2.7779 16.9001C2.78534 16.9001 2.79271 16.9001 2.8 16.9001H3.2C3.20729 16.9001 3.21466 16.9001 3.2221 16.9001C3.34234 16.9001 3.48065 16.9002 3.60169 16.8903C3.74072 16.8789 3.93409 16.8502 4.13559 16.7475C4.39901 16.6133 4.61319 16.3991 4.74741 16.1357C4.85008 15.9342 4.87884 15.7408 4.8902 15.6018C4.90009 15.4807 4.90004 15.3424 4.9 15.2222C4.9 15.2148 4.9 15.2074 4.9 15.2001V13.1001H3.5C3.16863 13.1001 2.9 12.8315 2.9 12.5001H1.1Z"/>
    <path fill-rule="evenodd" clip-rule="evenodd" d="M8.66232 0.100098H13.3377C14.2008 0.100079 14.9166 0.100064 15.5047 0.160877C16.124 0.22491 16.6776 0.362034 17.1962 0.682561C17.7149 1.00309 18.0851 1.43691 18.4193 1.9622C18.7368 2.46108 19.0569 3.10131 19.4428 3.87329L20.9 6.78765V14.9001H1.1V6.78765L2.55718 3.87328C2.94314 3.10131 3.26324 2.46108 3.58067 1.9622C3.91491 1.43691 4.28513 1.00309 4.80375 0.682561C5.32237 0.362034 5.87596 0.22491 6.49527 0.160877C7.08344 0.100064 7.79923 0.100079 8.66232 0.100098ZM6.68039 1.95133C6.21635 1.99931 5.9564 2.08621 5.75007 2.21373C5.54373 2.34125 5.34976 2.5349 5.09932 2.92849C4.83768 3.33968 4.55833 3.89591 4.14663 4.71931L2.9 7.21257V13.1001H19.1V7.21257L17.8534 4.71931C17.4417 3.89591 17.1623 3.33968 16.9007 2.92849C16.6502 2.5349 16.4563 2.34125 16.2499 2.21373C16.0436 2.08621 15.7836 1.99931 15.3196 1.95133C14.8348 1.90121 14.2124 1.9001 13.2918 1.9001H8.70821C7.78762 1.9001 7.16518 1.90121 6.68039 1.95133Z"/>
    <path fill-rule="evenodd" clip-rule="evenodd" d="M0 6.61455V6.38526C0 5.8964 0.396302 5.5001 0.885165 5.5001H3V7.0001L2.63731 7.72548C2.54886 7.90238 2.39856 8.04067 2.21493 8.11413C1.15403 8.53849 0 7.75717 0 6.61455ZM22 6.61455V6.38526C22 5.8964 21.6037 5.5001 21.1148 5.5001H19V7.0001L19.3627 7.72548C19.4511 7.90238 19.6014 8.04067 19.7851 8.11413C20.846 8.53849 22 7.75717 22 6.61455Z"/>
    <path fill-rule="evenodd" clip-rule="evenodd" d="M4.10695 10.3885C4.1686 9.89525 4.61841 9.5454 5.11163 9.60705L7.11163 9.85705C7.60485 9.9187 7.9547 10.3685 7.89305 10.8617C7.8314 11.3549 7.38159 11.7048 6.88837 11.6431L4.88837 11.3931C4.39515 11.3315 4.0453 10.8817 4.10695 10.3885Z"/>
    <path fill-rule="evenodd" clip-rule="evenodd" d="M17.8931 10.3885C17.8314 9.89525 17.3816 9.5454 16.8884 9.60705L14.8884 9.85705C14.3952 9.9187 14.0453 10.3685 14.107 10.8617C14.1686 11.3549 14.6184 11.7048 15.1116 11.6431L17.1116 11.3931C17.6048 11.3315 17.9547 10.8817 17.8931 10.3885Z"/>
  </symbol>
  <symbol id="icon-medicine" viewBox="0 0 20 17" xmlns="http://www.w3.org/2000/svg">
    <path d="M13.5 3.5C13.9971 3.5 14.4 3.90294 14.4 4.4V5.1H15.1C15.5971 5.1 16 5.50294 16 6C16 6.49706 15.5971 6.9 15.1 6.9H14.4V7.6C14.4 8.09706 13.9971 8.5 13.5 8.5C13.0029 8.5 12.6 8.09706 12.6 7.6V6.9H11.9C11.4029 6.9 11 6.49706 11 6C11 5.50294 11.4029 5.1 11.9 5.1H12.6V4.4C12.6 3.90294 13.0029 3.5 13.5 3.5Z"/>
    <path fill-rule="evenodd" clip-rule="evenodd" d="M10.111 1.69952C11.2389 0.643336 12.5405 0.0698058 13.9918 0.00598621L14.2656 0C17.4228 0 20 2.56027 20 5.71723C20 8.67599 18.9647 10.144 14.4269 13.7784L13.4937 14.5182L11.1296 16.3607C10.4655 16.8783 9.53455 16.8783 8.87045 16.3607L6.18242 14.263C1.12733 10.2688 0 8.80463 0 5.71723C0 2.56027 2.57716 0 5.73438 0C7.2746 0 8.66256 0.576055 9.87226 1.69501L9.994 1.813L10.111 1.69952ZM18.2 5.71723C18.2 3.55704 16.4314 1.8 14.2656 1.8C12.9087 1.8 11.7389 2.41565 10.702 3.70812C10.3441 4.15426 9.66623 4.15771 9.30377 3.71525C8.24077 2.41758 7.06729 1.8 5.73438 1.8C3.56863 1.8 1.8 3.55704 1.8 5.71723C1.8 7.96676 2.59678 9.09768 6.73899 12.4066L7.6128 13.0984L9.97695 14.941C9.9905 14.9515 10.0095 14.9515 10.0231 14.941L12.686 12.8631C17.1332 9.35205 18.1192 8.16744 18.1951 6.01083L18.2 5.71723Z"/>
  </symbol>
  <symbol id="icon-food" viewBox="0 0 20 20" xmlns="http://www.w3.org/2000/svg">
    <path fill-rule="evenodd" clip-rule="evenodd" d="M3.62599 0.731866C3.97747 0.380394 4.54732 0.380394 4.89879 0.731866L11.2163 7.04934C11.2327 7.06576 11.2483 7.08266 11.2632 7.09998H17.6667C17.6885 7.09998 17.7107 7.09993 17.7332 7.09987C17.9709 7.09925 18.2447 7.09853 18.4918 7.16472C19.1474 7.34041 19.6596 7.85255 19.8353 8.50823C19.9015 8.75526 19.9007 9.02909 19.9001 9.26673C19.9001 9.28927 19.9 9.31148 19.9 9.33332C19.9 9.38542 19.9 9.43683 19.9 9.48756C19.9003 10.8896 19.9004 11.7751 19.699 12.527C19.1872 14.437 17.756 15.9547 15.9 16.5857V17.02C15.9 17.0489 15.9 17.0777 15.9001 17.1063C15.9006 17.4645 15.901 17.7992 15.8246 18.0968C15.6069 18.9448 14.9448 19.6069 14.0969 19.8246C13.7992 19.901 13.4645 19.9005 13.1064 19.9001C13.0777 19.9 13.0489 19.9 13.02 19.9H6.98C6.95107 19.9 6.92228 19.9 6.89365 19.9001C6.53547 19.9005 6.20077 19.901 5.90315 19.8246C5.05523 19.6069 4.39311 18.9448 4.1754 18.0968C4.09898 17.7992 4.09944 17.4645 4.09992 17.1063C4.09996 17.0777 4.1 17.0489 4.1 17.02V16.5857C2.24397 15.9547 0.812812 14.437 0.301039 12.527C0.0995626 11.7751 0.0997251 10.8896 0.0999822 9.48759C0.0999915 9.43685 0.100001 9.38543 0.100001 9.33332C0.100001 9.31148 0.099943 9.28927 0.0998841 9.26673C0.0992635 9.02909 0.0985485 8.75526 0.164742 8.50823C0.34043 7.85255 0.85257 7.34041 1.50824 7.16472C1.75528 7.09853 2.02911 7.09925 2.26675 7.09987C2.28929 7.09993 2.3115 7.09998 2.33333 7.09998H4.47868L1.50467 4.12598C1.1532 3.77451 1.1532 3.20466 1.50467 2.85319C1.85615 2.50171 2.42599 2.50171 2.77747 2.85319L7.02426 7.09998H8.72132L3.62599 2.00466C3.27452 1.65319 3.27452 1.08334 3.62599 0.731866ZM7.66667 15.1H12.3333C13.9412 15.1 14.5686 15.0923 15.0612 14.9603C16.476 14.5812 17.5812 13.476 17.9603 12.0611C18.0923 11.5686 18.1 10.9412 18.1 9.33332C18.1 9.17017 18.0998 9.07782 18.0967 9.00969C18.0956 8.98711 18.0945 8.97286 18.0937 8.96502C18.0836 8.93787 18.0621 8.91642 18.035 8.9063C18.0271 8.90552 18.0129 8.90434 17.9903 8.90331C17.9222 8.9002 17.8298 8.89998 17.6667 8.89998H2.33333C2.17018 8.89998 2.07784 8.9002 2.0097 8.90331C1.98713 8.90434 1.97287 8.90552 1.96503 8.9063C1.93789 8.91642 1.91644 8.93787 1.90631 8.96501C1.90553 8.97285 1.90436 8.98711 1.90333 9.00968C1.90022 9.07782 1.9 9.17016 1.9 9.33332C1.9 10.9412 1.90773 11.5686 2.03971 12.0611C2.41882 13.476 3.52397 14.5812 4.93884 14.9603C5.43138 15.0923 6.05877 15.1 7.66667 15.1ZM5.9 16.9V17.02C5.9 17.5219 5.90713 17.6035 5.91885 17.6492C5.97328 17.8612 6.13881 18.0267 6.35079 18.0811C6.39644 18.0929 6.47812 18.1 6.98 18.1H13.02C13.5219 18.1 13.6036 18.0929 13.6492 18.0811C13.8612 18.0267 14.0267 17.8612 14.0812 17.6492C14.0929 17.6035 14.1 17.5219 14.1 17.02V16.9H12.7789C12.6843 16.9 12.5873 16.9 12.4876 16.9C12.4369 16.9 12.3855 16.9 12.3333 16.9H7.66667C7.61455 16.9 7.56313 16.9 7.51239 16.9C7.41274 16.9 7.31571 16.9 7.22115 16.9H5.9Z"/>
  </symbol>
  <symbol id="icon-market" viewBox="0 0 18 20" xmlns="http://www.w3.org/2000/svg">
    <path d="M9.00001 0.100098C11.7614 0.100098 14 2.33867 14 5.1001H14.0542C15.3915 5.1001 15.8764 5.23934 16.3653 5.5008C16.8542 5.76226 17.2378 6.14594 17.4993 6.63483C17.7608 7.12372 17.9 7.60865 17.9 8.94592V13.8344C17.9 15.9235 17.6795 16.696 17.2656 17.4701C16.8516 18.2442 16.2441 18.8517 15.47 19.2657C14.6959 19.6796 13.9234 19.9001 11.8344 19.9001H6.16565C4.07659 19.9001 3.30407 19.6796 2.53 19.2657C1.75592 18.8517 1.14843 18.2442 0.734446 17.4701C0.320467 16.696 0.100006 15.9235 0.100006 13.8344V8.94592C0.100006 7.60865 0.239245 7.12372 0.500705 6.63483C0.762166 6.14594 1.14585 5.76226 1.63474 5.5008C2.12363 5.23934 2.60856 5.1001 3.94583 5.1001H4.00001C4.00001 2.33867 6.23858 0.100098 9.00001 0.100098ZM14.2469 6.90087L3.94583 6.9001C2.99835 6.9001 2.7428 6.94944 2.48362 7.08806C2.30841 7.18176 2.18167 7.3085 2.08797 7.48371C1.94935 7.7429 1.90001 7.99844 1.90001 8.94592V13.8344C1.90001 15.4695 2.01053 16.0394 2.32171 16.6212C2.56793 17.0816 2.91848 17.4322 3.37888 17.6784C3.96073 17.9896 4.53064 18.1001 6.16565 18.1001H11.8344C13.4694 18.1001 14.0393 17.9896 14.6211 17.6784C15.0815 17.4322 15.4321 17.0816 15.6783 16.6212C15.9895 16.0394 16.1 15.4695 16.1 13.8344V8.94592C16.1 7.99844 16.0507 7.7429 15.912 7.48371C15.8183 7.3085 15.6916 7.18176 15.5164 7.08806C15.2757 6.95935 15.0382 6.9076 14.2469 6.90087ZM12.946 8.0001C13.1514 8.0001 13.2941 8.03491 13.4163 8.10027C13.5385 8.16564 13.6345 8.26156 13.6998 8.38378C13.7652 8.506 13.8 8.64873 13.8 8.85408V8.94611C13.8 9.15147 13.7652 9.29419 13.6998 9.41641C13.6345 9.53864 13.5385 9.63456 13.4163 9.69992C13.2941 9.76529 13.1514 9.8001 12.946 9.8001H12.854C12.6486 9.8001 12.5059 9.76529 12.3837 9.69992C12.2615 9.63456 12.1655 9.53864 12.1002 9.41641C12.0348 9.29419 12 9.15147 12 8.94611V8.85408C12 8.64873 12.0348 8.506 12.1002 8.38378C12.1655 8.26156 12.2615 8.16564 12.3837 8.10027C12.5059 8.03491 12.6486 8.0001 12.854 8.0001H12.946ZM4.94602 8.0001C5.15137 8.0001 5.2941 8.03491 5.41632 8.10027C5.53855 8.16564 5.63447 8.26156 5.69983 8.38378C5.7652 8.506 5.80001 8.64873 5.80001 8.85408V8.94611C5.80001 9.15147 5.7652 9.29419 5.69983 9.41641C5.63447 9.53864 5.53855 9.63456 5.41632 9.69992C5.2941 9.76529 5.15137 9.8001 4.94602 9.8001H4.85399C4.64864 9.8001 4.50591 9.76529 4.38369 9.69992C4.26147 9.63456 4.16555 9.53864 4.10018 9.41641C4.03482 9.29419 4.00001 9.15147 4.00001 8.94611V8.85408C4.00001 8.64873 4.03482 8.506 4.10018 8.38378C4.16555 8.26156 4.26147 8.16564 4.38369 8.10027C4.50591 8.03491 4.64864 8.0001 4.85399 8.0001H4.94602ZM9.00001 1.9001C7.23269 1.9001 5.80001 3.33279 5.80001 5.1001H12.2C12.2 3.33279 10.7673 1.9001 9.00001 1.9001Z"/>
  </symbol>
  <symbol id="icon-ar" viewBox="0 0 20 20" xmlns="http://www.w3.org/2000/svg">
    <path fill-rule="evenodd" clip-rule="evenodd" d="M2.99965 2.99974C4.79021 1.20918 7.26645 0.100098 10 0.100098C12.7336 0.100098 15.2098 1.20918 17.0004 2.99974C18.7909 4.7903 19.9 7.26654 19.9 10.0001C19.9 12.7337 18.7909 15.2099 17.0004 17.0005C15.2098 18.791 12.7336 19.9001 10 19.9001C7.26644 19.9001 4.79021 18.791 2.99965 17.0005C1.20909 15.2099 0.100006 12.7337 0.100006 10.0001C0.100006 7.26654 1.20909 4.7903 2.99965 2.99974ZM10 1.9001C7.763 1.9001 5.73924 2.80574 4.27244 4.27253C2.80564 5.73933 1.90001 7.76309 1.90001 10.0001C1.90001 12.2371 2.80564 14.2609 4.27244 15.7277C5.73924 17.1945 7.763 18.1001 10 18.1001C12.237 18.1001 14.2608 17.1945 15.7276 15.7277C17.1944 14.2609 18.1 12.2371 18.1 10.0001C18.1 7.7631 17.1944 5.73933 15.7276 4.27253C14.2608 2.80574 12.237 1.9001 10 1.9001Z"/>
    <path fill-rule="evenodd" clip-rule="evenodd" d="M5.82808 5.82817C6.89478 4.76146 8.37101 4.1001 10 4.1001C11.629 4.1001 13.1052 4.76146 14.1719 5.82817C15.2386 6.89487 15.9 8.37111 15.9 10.0001C15.9 11.6291 15.2386 13.1053 14.1719 14.172C13.1052 15.2387 11.629 15.9001 10 15.9001C8.37101 15.9001 6.89478 15.2387 5.82808 14.172C4.76137 13.1053 4.10001 11.6291 4.10001 10.0001C4.10001 8.37111 4.76137 6.89487 5.82808 5.82817ZM10 5.9001C8.86757 5.9001 7.84381 6.35802 7.10087 7.10096C6.35793 7.8439 5.90001 8.86766 5.90001 10.0001C5.90001 11.1325 6.35793 12.1563 7.10087 12.8992C7.84381 13.6422 8.86757 14.1001 10 14.1001C11.1324 14.1001 12.1562 13.6422 12.8991 12.8992C13.6421 12.1563 14.1 11.1325 14.1 10.0001C14.1 8.86767 13.6421 7.8439 12.8991 7.10096C12.1562 6.35802 11.1324 5.9001 10 5.9001Z"/>
    <path fill-rule="evenodd" clip-rule="evenodd" d="M11.3435 8.6566C11.0007 8.31375 10.5244 8.1001 10 8.1001C9.47558 8.1001 8.99935 8.31375 8.6565 8.6566C8.31366 8.99944 8.10001 9.47568 8.10001 10.0001C8.10001 10.5245 8.31366 11.0008 8.6565 11.3436C8.99935 11.6864 9.47558 11.9001 10 11.9001C10.5244 11.9001 11.0007 11.6864 11.3435 11.3436C11.6864 11.0008 11.9 10.5245 11.9 10.0001C11.9 9.47568 11.6864 8.99944 11.3435 8.6566Z"/>
  </symbol>
  <symbol id="icon-tv" viewBox="0 0 20 20" xmlns="http://www.w3.org/2000/svg">
    <path d="M5.25 13.7499H6.25C6.66421 13.7499 7 14.0857 7 14.4999V15.4999C7 15.9141 6.66421 16.2499 6.25 16.2499H5.25C4.83579 16.2499 4.5 15.9141 4.5 15.4999V14.4999C4.5 14.0857 4.83579 13.7499 5.25 13.7499Z"/>
    <path d="M13.75 13.7499H14.75C15.1642 13.7499 15.5 14.0857 15.5 14.4999V15.4999C15.5 15.9141 15.1642 16.2499 14.75 16.2499H13.75C13.3358 16.2499 13 15.9141 13 15.4999V14.4999C13 14.0857 13.3358 13.7499 13.75 13.7499Z"/>
    <path d="M5.25 8.74988H6.25C6.66421 8.74988 7 9.08566 7 9.49988V10.4999C7 10.9141 6.66421 11.2499 6.25 11.2499H5.25C4.83579 11.2499 4.5 10.9141 4.5 10.4999V9.49988C4.5 9.08566 4.83579 8.74988 5.25 8.74988Z"/>
    <path d="M13.75 8.74988H14.75C15.1642 8.74988 15.5 9.08566 15.5 9.49988V10.4999C15.5 10.9141 15.1642 11.2499 14.75 11.2499H13.75C13.3358 11.2499 13 10.9141 13 10.4999V9.49988C13 9.08566 13.3358 8.74988 13.75 8.74988Z"/>
    <path d="M5.25 3.74988H6.25C6.66421 3.74988 7 4.08566 7 4.49988V5.49988C7 5.91409 6.66421 6.24988 6.25 6.24988H5.25C4.83579 6.24988 4.5 5.91409 4.5 5.49988V4.49988C4.5 4.08566 4.83579 3.74988 5.25 3.74988Z"/>
    <path d="M13.75 3.74988H14.75C15.1642 3.74988 15.5 4.08566 15.5 4.49988V5.49988C15.5 5.91409 15.1642 6.24988 14.75 6.24988H13.75C13.3358 6.24988 13 5.91409 13 5.49988V4.49988C13 4.08566 13.3358 3.74988 13.75 3.74988Z"/>
    <path fill-rule="evenodd" clip-rule="evenodd" d="M7.46131 0.0998537H12.5387C13.556 0.0998455 14.3742 0.0998388 15.0363 0.153934C15.7173 0.209572 16.312 0.326891 16.8611 0.606674C17.736 1.05249 18.4474 1.76384 18.8932 2.6388C19.173 3.1879 19.2903 3.7826 19.3459 4.46357C19.4 5.12567 19.4 5.94388 19.4 6.96116V13.0386C19.4 14.0558 19.4 14.874 19.3459 15.5361C19.2903 16.2171 19.173 16.8118 18.8932 17.3609C18.4474 18.2359 17.736 18.9472 16.8611 19.393C16.312 19.6728 15.7173 19.7901 15.0363 19.8458C14.3742 19.8999 13.556 19.8999 12.5387 19.8999H7.46131C6.44404 19.8999 5.62582 19.8999 4.96373 19.8458C4.28275 19.7901 3.68806 19.6728 3.13895 19.393C2.264 18.9472 1.55264 18.2359 1.10683 17.3609C0.827043 16.8118 0.709725 16.2171 0.654087 15.5361C0.599991 14.874 0.599998 14.0558 0.600006 13.0385V6.96115C0.599998 5.94388 0.599991 5.12567 0.654087 4.46357C0.709725 3.7826 0.827043 3.1879 1.10683 2.6388C1.55264 1.76384 2.264 1.05249 3.13895 0.606674C3.68806 0.326891 4.28275 0.209572 4.96373 0.153934C5.62582 0.0998389 6.44404 0.0998455 7.46131 0.0998537ZM5.1103 1.94796C4.54064 1.9945 4.2092 2.08154 3.95613 2.21049C3.41987 2.48372 2.98388 2.91972 2.71064 3.45598C2.5817 3.70904 2.49465 4.04049 2.44811 4.61015C2.40071 5.19032 2.40001 5.93491 2.40001 6.99985V12.9999C2.40001 14.0648 2.40071 14.8094 2.44811 15.3896C2.49465 15.9592 2.5817 16.2907 2.71064 16.5437C2.98388 17.08 3.41987 17.516 3.95613 17.7892C4.2092 17.9182 4.54064 18.0052 5.1103 18.0518C5.69047 18.0992 6.43506 18.0999 7.50001 18.0999H12.5C13.565 18.0999 14.3095 18.0992 14.8897 18.0518C15.4594 18.0052 15.7908 17.9182 16.0439 17.7892C16.5801 17.516 17.0161 17.08 17.2894 16.5437C17.4183 16.2907 17.5054 15.9592 17.5519 15.3896C17.5993 14.8094 17.6 14.0648 17.6 12.9999V6.99985C17.6 5.93491 17.5993 5.19032 17.5519 4.61015C17.5054 4.04049 17.4183 3.70904 17.2894 3.45598C17.0161 2.91972 16.5801 2.48372 16.0439 2.21049C15.7908 2.08154 15.4594 1.9945 14.8897 1.94796C14.3095 1.90055 13.565 1.89985 12.5 1.89985H7.50001C6.43506 1.89985 5.69047 1.90055 5.1103 1.94796Z"/>
  </symbol>
  <symbol id="icon-work" viewBox="0 0 20 18" xmlns="http://www.w3.org/2000/svg">
    <path fill-rule="evenodd" clip-rule="evenodd" d="M9.16461 0.100098H9.20001H10.8H10.8354H10.8354C11.3653 0.100084 11.8165 0.100072 12.1869 0.130337C12.5761 0.162133 12.9546 0.231767 13.3166 0.416181C13.8623 0.694213 14.3059 1.13786 14.5839 1.68353C14.7683 2.04546 14.838 2.42405 14.8698 2.81321C14.8988 3.1685 14.9 3.59807 14.9 4.1001H15.8L15.8354 4.1001C16.3653 4.10008 16.8165 4.10007 17.1869 4.13034C17.5761 4.16213 17.9546 4.23177 18.3166 4.41618C18.8623 4.69421 19.3059 5.13786 19.5839 5.68353C19.7683 6.04546 19.838 6.42405 19.8698 6.81321C19.9 7.18364 19.9 7.6348 19.9 8.16465V8.16467V8.16469V8.2001V9.6001V9.63344C19.9 10.0249 19.9 10.3714 19.8766 10.6586C19.8516 10.9644 19.7956 11.2812 19.6384 11.5897C19.4083 12.0413 19.0412 12.4084 18.5896 12.6385C18.3617 12.7546 18.1292 12.8155 17.9 12.8495V13.4001V13.4362C17.9 14.0355 17.9 14.5391 17.8664 14.9512C17.8312 15.382 17.7547 15.7915 17.5567 16.1802C17.2547 16.7729 16.7728 17.2548 16.1801 17.5568C15.7914 17.7548 15.3819 17.8313 14.9511 17.8665C14.539 17.9001 14.0355 17.9001 13.4362 17.9001H13.4362L13.4 17.9001H6.60001L6.56387 17.9001H6.56377C5.96453 17.9001 5.46099 17.9001 5.04892 17.8665C4.61808 17.8313 4.20861 17.7548 3.81994 17.5568C3.22723 17.2548 2.74534 16.7729 2.44334 16.1802C2.2453 15.7915 2.16885 15.382 2.13365 14.9512C2.09998 14.5391 2.1 14.0355 2.10001 13.4362L2.10001 13.4001V12.8495C1.8708 12.8155 1.63832 12.7546 1.41043 12.6385C0.958843 12.4084 0.59169 12.0413 0.361593 11.5897C0.204428 11.2812 0.148418 10.9644 0.123434 10.6586C0.0999738 10.3714 0.0999894 10.025 0.100007 9.63348V9.63343L0.100009 9.6001V8.2001L0.100007 8.1647V8.16464C0.0999937 7.63479 0.0999822 7.18363 0.130247 6.81321C0.162042 6.42405 0.231676 6.04546 0.41609 5.68353C0.694123 5.13786 1.13777 4.69421 1.68344 4.41618C2.04537 4.23177 2.42396 4.16213 2.81312 4.13034C3.18356 4.10007 3.63474 4.10008 4.16461 4.1001L4.20001 4.1001H5.10001C5.10004 3.59807 5.10122 3.1685 5.13025 2.81321C5.16204 2.42405 5.23168 2.04546 5.41609 1.68353C5.69412 1.13786 6.13777 0.694213 6.68344 0.416181C7.04537 0.231767 7.42396 0.162133 7.81312 0.130337C8.18355 0.100072 8.63472 0.100084 9.16458 0.100098H9.16461ZM3.40001 11.1001H16.6C17.0349 11.1001 17.3069 11.0994 17.5119 11.0827C17.7064 11.0668 17.76 11.041 17.7724 11.0347C17.8853 10.9772 17.9771 10.8854 18.0346 10.7725C18.0409 10.7601 18.0667 10.7065 18.0826 10.512C18.0993 10.307 18.1 10.035 18.1 9.6001V8.2001C18.1 7.6252 18.0993 7.24815 18.0758 6.95979C18.053 6.68194 18.0137 6.5666 17.9801 6.50071C17.8747 6.29373 17.7064 6.12545 17.4994 6.01999C17.4335 5.98642 17.3182 5.94706 17.0403 5.92436C16.752 5.9008 16.3749 5.9001 15.8 5.9001H14.9V5.90011H14H6.00001H5.10001V5.9001H4.20001C3.62511 5.9001 3.24806 5.9008 2.9597 5.92436C2.68185 5.94706 2.56651 5.98642 2.50062 6.01999C2.29364 6.12545 2.12536 6.29373 2.0199 6.50071C1.98633 6.5666 1.94697 6.68194 1.92427 6.95979C1.90071 7.24815 1.90001 7.6252 1.90001 8.2001V9.6001C1.90001 10.035 1.90071 10.307 1.91746 10.512C1.93335 10.7065 1.95908 10.7601 1.96541 10.7725C2.02293 10.8854 2.11472 10.9772 2.22761 11.0347C2.24003 11.041 2.29363 11.0668 2.4881 11.0827C2.69308 11.0994 2.96512 11.1001 3.40001 11.1001ZM3.90001 12.9001V13.4001C3.90001 14.045 3.90071 14.4746 3.92767 14.8046C3.95378 15.1241 3.99995 15.2704 4.04715 15.363C4.17658 15.617 4.3831 15.8235 4.63712 15.953C4.72975 16.0002 4.87597 16.0463 5.1955 16.0724C5.52554 16.0994 5.9551 16.1001 6.60001 16.1001H13.4C14.0449 16.1001 14.4745 16.0994 14.8045 16.0724C15.1241 16.0463 15.2703 16.0002 15.3629 15.953C15.6169 15.8235 15.8234 15.617 15.9529 15.363C16.0001 15.2704 16.0462 15.1241 16.0723 14.8046C16.0993 14.4746 16.1 14.045 16.1 13.4001V12.9001H3.90001ZM13.0757 2.95979C13.0979 3.23108 13.0998 3.58088 13.1 4.1001H6.90002C6.90017 3.58088 6.9021 3.23108 6.92427 2.95979C6.94697 2.68194 6.98633 2.5666 7.0199 2.50071C7.12536 2.29373 7.29364 2.12545 7.50062 2.01999C7.56651 1.98642 7.68185 1.94706 7.9597 1.92436C8.24806 1.9008 8.62511 1.9001 9.20001 1.9001H10.8C11.3749 1.9001 11.752 1.9008 12.0403 1.92436C12.3182 1.94706 12.4335 1.98642 12.4994 2.01999C12.7064 2.12545 12.8747 2.29373 12.9801 2.50071C13.0137 2.5666 13.053 2.68194 13.0757 2.95979Z"/>
  </symbol>
  <symbol id="icon-religion" viewBox="0 0 18 19" xmlns="http://www.w3.org/2000/svg">
    <path d="M3.37366 5.39655C3.19965 5.48853 3.0114 5.30028 3.10338 5.12627L4.09522 3.2499L3.10338 1.37353C3.0114 1.19953 3.19965 1.01127 3.37366 1.10325L5.25003 2.09509L7.1264 1.10325C7.30041 1.01127 7.48866 1.19953 7.39668 1.37353L6.40484 3.2499L7.39668 5.12627C7.48866 5.30028 7.30041 5.48853 7.1264 5.39655L5.25003 4.40471L3.37366 5.39655Z"/>
    <path d="M15.25 3.90471L13.3737 4.89655C13.1997 4.98853 13.0114 4.80028 13.1034 4.62627L14.0952 2.7499L13.1034 0.873533C13.0114 0.699525 13.1997 0.511271 13.3737 0.603251L15.25 1.59509L17.1264 0.603251C17.3004 0.511271 17.4887 0.699525 17.3967 0.873533L16.4048 2.7499L17.3967 4.62627C17.4887 4.80028 17.3004 4.98853 17.1264 4.89655L15.25 3.90471Z"/>
    <path d="M13.3737 14.3966C13.1997 14.4885 13.0114 14.3003 13.1034 14.1263L14.0952 12.2499L13.1034 10.3735C13.0114 10.1995 13.1997 10.0113 13.3737 10.1033L15.25 11.0951L17.1264 10.1033C17.3004 10.0113 17.4887 10.1995 17.3967 10.3735L16.4048 12.2499L17.3967 14.1263C17.4887 14.3003 17.3004 14.4885 17.1264 14.3966L15.25 13.4047L13.3737 14.3966Z"/>
    <path fill-rule="evenodd" clip-rule="evenodd" d="M11.1364 7.36351C11.4879 7.71499 11.4879 8.28483 11.1364 8.63631L1.6364 18.1363C1.28493 18.4878 0.715082 18.4878 0.36361 18.1363C0.0121382 17.7848 0.0121381 17.215 0.36361 16.8635L9.86361 7.36351C10.2151 7.01204 10.7849 7.01204 11.1364 7.36351Z"/>
  </symbol>
  <symbol id="icon-cources" viewBox="0 0 20 20" xmlns="http://www.w3.org/2000/svg">
    <path fill-rule="evenodd" clip-rule="evenodd" d="M9.99998 13.6374L13.3 11.7322C14.6333 10.9624 14.6333 9.03786 13.3 8.26806L9.99998 6.36279C8.66664 5.59299 6.99997 6.55524 6.99997 8.09485L6.99997 11.9054C6.99997 13.445 8.66664 14.4072 9.99998 13.6374ZM12.4 9.8269C12.5333 9.90389 12.5333 10.0963 12.4 10.1733L9.09998 12.0786C8.96664 12.1556 8.79997 12.0593 8.79997 11.9054V8.09485C8.79997 7.94088 8.96664 7.84466 9.09998 7.92164L12.4 9.8269Z"/>
    <path fill-rule="evenodd" clip-rule="evenodd" d="M2.99965 2.99974C4.79021 1.20918 7.26645 0.100098 10 0.100098C12.7336 0.100098 15.2098 1.20918 17.0004 2.99974C18.7909 4.7903 19.9 7.26654 19.9 10.0001C19.9 12.7337 18.7909 15.2099 17.0004 17.0005C15.2098 18.791 12.7336 19.9001 10 19.9001C7.26644 19.9001 4.79021 18.791 2.99965 17.0005C1.20909 15.2099 0.100006 12.7337 0.100006 10.0001C0.100006 7.26654 1.20909 4.7903 2.99965 2.99974ZM10 1.9001C7.763 1.9001 5.73924 2.80574 4.27244 4.27253C2.80564 5.73933 1.90001 7.76309 1.90001 10.0001C1.90001 12.2371 2.80564 14.2609 4.27244 15.7277C5.73924 17.1945 7.763 18.1001 10 18.1001C12.237 18.1001 14.2608 17.1945 15.7276 15.7277C17.1944 14.2609 18.1 12.2371 18.1 10.0001C18.1 7.7631 17.1944 5.73933 15.7276 4.27253C14.2608 2.80574 12.237 1.9001 10 1.9001Z"/>
  </symbol>
</svg>
